G75*
%MOIN*%
%OFA0B0*%
%FSLAX25Y25*%
%IPPOS*%
%LPD*%
%AMOC8*
5,1,8,0,0,1.08239X$1,22.5*
%
%ADD10C,0.01600*%
%ADD11C,0.00000*%
D10*
X0483333Y0001800D02*
X0483333Y0036800D01*
X0662708Y0036800D01*
X0662708Y0001800D01*
X0483333Y0001800D01*
D11*
X0485833Y0006800D02*
X0485835Y0006899D01*
X0485841Y0006999D01*
X0485851Y0007098D01*
X0485865Y0007196D01*
X0485882Y0007294D01*
X0485904Y0007391D01*
X0485929Y0007487D01*
X0485958Y0007582D01*
X0485991Y0007676D01*
X0486028Y0007768D01*
X0486068Y0007859D01*
X0486112Y0007948D01*
X0486160Y0008036D01*
X0486211Y0008121D01*
X0486265Y0008204D01*
X0486322Y0008286D01*
X0486383Y0008364D01*
X0486447Y0008441D01*
X0486513Y0008514D01*
X0486583Y0008585D01*
X0486655Y0008653D01*
X0486730Y0008719D01*
X0486808Y0008781D01*
X0486888Y0008840D01*
X0486970Y0008896D01*
X0487054Y0008948D01*
X0487141Y0008997D01*
X0487229Y0009043D01*
X0487319Y0009085D01*
X0487411Y0009124D01*
X0487504Y0009159D01*
X0487598Y0009190D01*
X0487694Y0009217D01*
X0487791Y0009240D01*
X0487888Y0009260D01*
X0487986Y0009276D01*
X0488085Y0009288D01*
X0488184Y0009296D01*
X0488283Y0009300D01*
X0488383Y0009300D01*
X0488482Y0009296D01*
X0488581Y0009288D01*
X0488680Y0009276D01*
X0488778Y0009260D01*
X0488875Y0009240D01*
X0488972Y0009217D01*
X0489068Y0009190D01*
X0489162Y0009159D01*
X0489255Y0009124D01*
X0489347Y0009085D01*
X0489437Y0009043D01*
X0489525Y0008997D01*
X0489612Y0008948D01*
X0489696Y0008896D01*
X0489778Y0008840D01*
X0489858Y0008781D01*
X0489936Y0008719D01*
X0490011Y0008653D01*
X0490083Y0008585D01*
X0490153Y0008514D01*
X0490219Y0008441D01*
X0490283Y0008364D01*
X0490344Y0008286D01*
X0490401Y0008204D01*
X0490455Y0008121D01*
X0490506Y0008036D01*
X0490554Y0007948D01*
X0490598Y0007859D01*
X0490638Y0007768D01*
X0490675Y0007676D01*
X0490708Y0007582D01*
X0490737Y0007487D01*
X0490762Y0007391D01*
X0490784Y0007294D01*
X0490801Y0007196D01*
X0490815Y0007098D01*
X0490825Y0006999D01*
X0490831Y0006899D01*
X0490833Y0006800D01*
X0490831Y0006701D01*
X0490825Y0006601D01*
X0490815Y0006502D01*
X0490801Y0006404D01*
X0490784Y0006306D01*
X0490762Y0006209D01*
X0490737Y0006113D01*
X0490708Y0006018D01*
X0490675Y0005924D01*
X0490638Y0005832D01*
X0490598Y0005741D01*
X0490554Y0005652D01*
X0490506Y0005564D01*
X0490455Y0005479D01*
X0490401Y0005396D01*
X0490344Y0005314D01*
X0490283Y0005236D01*
X0490219Y0005159D01*
X0490153Y0005086D01*
X0490083Y0005015D01*
X0490011Y0004947D01*
X0489936Y0004881D01*
X0489858Y0004819D01*
X0489778Y0004760D01*
X0489696Y0004704D01*
X0489612Y0004652D01*
X0489525Y0004603D01*
X0489437Y0004557D01*
X0489347Y0004515D01*
X0489255Y0004476D01*
X0489162Y0004441D01*
X0489068Y0004410D01*
X0488972Y0004383D01*
X0488875Y0004360D01*
X0488778Y0004340D01*
X0488680Y0004324D01*
X0488581Y0004312D01*
X0488482Y0004304D01*
X0488383Y0004300D01*
X0488283Y0004300D01*
X0488184Y0004304D01*
X0488085Y0004312D01*
X0487986Y0004324D01*
X0487888Y0004340D01*
X0487791Y0004360D01*
X0487694Y0004383D01*
X0487598Y0004410D01*
X0487504Y0004441D01*
X0487411Y0004476D01*
X0487319Y0004515D01*
X0487229Y0004557D01*
X0487141Y0004603D01*
X0487054Y0004652D01*
X0486970Y0004704D01*
X0486888Y0004760D01*
X0486808Y0004819D01*
X0486730Y0004881D01*
X0486655Y0004947D01*
X0486583Y0005015D01*
X0486513Y0005086D01*
X0486447Y0005159D01*
X0486383Y0005236D01*
X0486322Y0005314D01*
X0486265Y0005396D01*
X0486211Y0005479D01*
X0486160Y0005564D01*
X0486112Y0005652D01*
X0486068Y0005741D01*
X0486028Y0005832D01*
X0485991Y0005924D01*
X0485958Y0006018D01*
X0485929Y0006113D01*
X0485904Y0006209D01*
X0485882Y0006306D01*
X0485865Y0006404D01*
X0485851Y0006502D01*
X0485841Y0006601D01*
X0485835Y0006701D01*
X0485833Y0006800D01*
X0655208Y0006800D02*
X0655210Y0006899D01*
X0655216Y0006999D01*
X0655226Y0007098D01*
X0655240Y0007196D01*
X0655257Y0007294D01*
X0655279Y0007391D01*
X0655304Y0007487D01*
X0655333Y0007582D01*
X0655366Y0007676D01*
X0655403Y0007768D01*
X0655443Y0007859D01*
X0655487Y0007948D01*
X0655535Y0008036D01*
X0655586Y0008121D01*
X0655640Y0008204D01*
X0655697Y0008286D01*
X0655758Y0008364D01*
X0655822Y0008441D01*
X0655888Y0008514D01*
X0655958Y0008585D01*
X0656030Y0008653D01*
X0656105Y0008719D01*
X0656183Y0008781D01*
X0656263Y0008840D01*
X0656345Y0008896D01*
X0656429Y0008948D01*
X0656516Y0008997D01*
X0656604Y0009043D01*
X0656694Y0009085D01*
X0656786Y0009124D01*
X0656879Y0009159D01*
X0656973Y0009190D01*
X0657069Y0009217D01*
X0657166Y0009240D01*
X0657263Y0009260D01*
X0657361Y0009276D01*
X0657460Y0009288D01*
X0657559Y0009296D01*
X0657658Y0009300D01*
X0657758Y0009300D01*
X0657857Y0009296D01*
X0657956Y0009288D01*
X0658055Y0009276D01*
X0658153Y0009260D01*
X0658250Y0009240D01*
X0658347Y0009217D01*
X0658443Y0009190D01*
X0658537Y0009159D01*
X0658630Y0009124D01*
X0658722Y0009085D01*
X0658812Y0009043D01*
X0658900Y0008997D01*
X0658987Y0008948D01*
X0659071Y0008896D01*
X0659153Y0008840D01*
X0659233Y0008781D01*
X0659311Y0008719D01*
X0659386Y0008653D01*
X0659458Y0008585D01*
X0659528Y0008514D01*
X0659594Y0008441D01*
X0659658Y0008364D01*
X0659719Y0008286D01*
X0659776Y0008204D01*
X0659830Y0008121D01*
X0659881Y0008036D01*
X0659929Y0007948D01*
X0659973Y0007859D01*
X0660013Y0007768D01*
X0660050Y0007676D01*
X0660083Y0007582D01*
X0660112Y0007487D01*
X0660137Y0007391D01*
X0660159Y0007294D01*
X0660176Y0007196D01*
X0660190Y0007098D01*
X0660200Y0006999D01*
X0660206Y0006899D01*
X0660208Y0006800D01*
X0660206Y0006701D01*
X0660200Y0006601D01*
X0660190Y0006502D01*
X0660176Y0006404D01*
X0660159Y0006306D01*
X0660137Y0006209D01*
X0660112Y0006113D01*
X0660083Y0006018D01*
X0660050Y0005924D01*
X0660013Y0005832D01*
X0659973Y0005741D01*
X0659929Y0005652D01*
X0659881Y0005564D01*
X0659830Y0005479D01*
X0659776Y0005396D01*
X0659719Y0005314D01*
X0659658Y0005236D01*
X0659594Y0005159D01*
X0659528Y0005086D01*
X0659458Y0005015D01*
X0659386Y0004947D01*
X0659311Y0004881D01*
X0659233Y0004819D01*
X0659153Y0004760D01*
X0659071Y0004704D01*
X0658987Y0004652D01*
X0658900Y0004603D01*
X0658812Y0004557D01*
X0658722Y0004515D01*
X0658630Y0004476D01*
X0658537Y0004441D01*
X0658443Y0004410D01*
X0658347Y0004383D01*
X0658250Y0004360D01*
X0658153Y0004340D01*
X0658055Y0004324D01*
X0657956Y0004312D01*
X0657857Y0004304D01*
X0657758Y0004300D01*
X0657658Y0004300D01*
X0657559Y0004304D01*
X0657460Y0004312D01*
X0657361Y0004324D01*
X0657263Y0004340D01*
X0657166Y0004360D01*
X0657069Y0004383D01*
X0656973Y0004410D01*
X0656879Y0004441D01*
X0656786Y0004476D01*
X0656694Y0004515D01*
X0656604Y0004557D01*
X0656516Y0004603D01*
X0656429Y0004652D01*
X0656345Y0004704D01*
X0656263Y0004760D01*
X0656183Y0004819D01*
X0656105Y0004881D01*
X0656030Y0004947D01*
X0655958Y0005015D01*
X0655888Y0005086D01*
X0655822Y0005159D01*
X0655758Y0005236D01*
X0655697Y0005314D01*
X0655640Y0005396D01*
X0655586Y0005479D01*
X0655535Y0005564D01*
X0655487Y0005652D01*
X0655443Y0005741D01*
X0655403Y0005832D01*
X0655366Y0005924D01*
X0655333Y0006018D01*
X0655304Y0006113D01*
X0655279Y0006209D01*
X0655257Y0006306D01*
X0655240Y0006404D01*
X0655226Y0006502D01*
X0655216Y0006601D01*
X0655210Y0006701D01*
X0655208Y0006800D01*
X0655208Y0019300D02*
X0655210Y0019399D01*
X0655216Y0019499D01*
X0655226Y0019598D01*
X0655240Y0019696D01*
X0655257Y0019794D01*
X0655279Y0019891D01*
X0655304Y0019987D01*
X0655333Y0020082D01*
X0655366Y0020176D01*
X0655403Y0020268D01*
X0655443Y0020359D01*
X0655487Y0020448D01*
X0655535Y0020536D01*
X0655586Y0020621D01*
X0655640Y0020704D01*
X0655697Y0020786D01*
X0655758Y0020864D01*
X0655822Y0020941D01*
X0655888Y0021014D01*
X0655958Y0021085D01*
X0656030Y0021153D01*
X0656105Y0021219D01*
X0656183Y0021281D01*
X0656263Y0021340D01*
X0656345Y0021396D01*
X0656429Y0021448D01*
X0656516Y0021497D01*
X0656604Y0021543D01*
X0656694Y0021585D01*
X0656786Y0021624D01*
X0656879Y0021659D01*
X0656973Y0021690D01*
X0657069Y0021717D01*
X0657166Y0021740D01*
X0657263Y0021760D01*
X0657361Y0021776D01*
X0657460Y0021788D01*
X0657559Y0021796D01*
X0657658Y0021800D01*
X0657758Y0021800D01*
X0657857Y0021796D01*
X0657956Y0021788D01*
X0658055Y0021776D01*
X0658153Y0021760D01*
X0658250Y0021740D01*
X0658347Y0021717D01*
X0658443Y0021690D01*
X0658537Y0021659D01*
X0658630Y0021624D01*
X0658722Y0021585D01*
X0658812Y0021543D01*
X0658900Y0021497D01*
X0658987Y0021448D01*
X0659071Y0021396D01*
X0659153Y0021340D01*
X0659233Y0021281D01*
X0659311Y0021219D01*
X0659386Y0021153D01*
X0659458Y0021085D01*
X0659528Y0021014D01*
X0659594Y0020941D01*
X0659658Y0020864D01*
X0659719Y0020786D01*
X0659776Y0020704D01*
X0659830Y0020621D01*
X0659881Y0020536D01*
X0659929Y0020448D01*
X0659973Y0020359D01*
X0660013Y0020268D01*
X0660050Y0020176D01*
X0660083Y0020082D01*
X0660112Y0019987D01*
X0660137Y0019891D01*
X0660159Y0019794D01*
X0660176Y0019696D01*
X0660190Y0019598D01*
X0660200Y0019499D01*
X0660206Y0019399D01*
X0660208Y0019300D01*
X0660206Y0019201D01*
X0660200Y0019101D01*
X0660190Y0019002D01*
X0660176Y0018904D01*
X0660159Y0018806D01*
X0660137Y0018709D01*
X0660112Y0018613D01*
X0660083Y0018518D01*
X0660050Y0018424D01*
X0660013Y0018332D01*
X0659973Y0018241D01*
X0659929Y0018152D01*
X0659881Y0018064D01*
X0659830Y0017979D01*
X0659776Y0017896D01*
X0659719Y0017814D01*
X0659658Y0017736D01*
X0659594Y0017659D01*
X0659528Y0017586D01*
X0659458Y0017515D01*
X0659386Y0017447D01*
X0659311Y0017381D01*
X0659233Y0017319D01*
X0659153Y0017260D01*
X0659071Y0017204D01*
X0658987Y0017152D01*
X0658900Y0017103D01*
X0658812Y0017057D01*
X0658722Y0017015D01*
X0658630Y0016976D01*
X0658537Y0016941D01*
X0658443Y0016910D01*
X0658347Y0016883D01*
X0658250Y0016860D01*
X0658153Y0016840D01*
X0658055Y0016824D01*
X0657956Y0016812D01*
X0657857Y0016804D01*
X0657758Y0016800D01*
X0657658Y0016800D01*
X0657559Y0016804D01*
X0657460Y0016812D01*
X0657361Y0016824D01*
X0657263Y0016840D01*
X0657166Y0016860D01*
X0657069Y0016883D01*
X0656973Y0016910D01*
X0656879Y0016941D01*
X0656786Y0016976D01*
X0656694Y0017015D01*
X0656604Y0017057D01*
X0656516Y0017103D01*
X0656429Y0017152D01*
X0656345Y0017204D01*
X0656263Y0017260D01*
X0656183Y0017319D01*
X0656105Y0017381D01*
X0656030Y0017447D01*
X0655958Y0017515D01*
X0655888Y0017586D01*
X0655822Y0017659D01*
X0655758Y0017736D01*
X0655697Y0017814D01*
X0655640Y0017896D01*
X0655586Y0017979D01*
X0655535Y0018064D01*
X0655487Y0018152D01*
X0655443Y0018241D01*
X0655403Y0018332D01*
X0655366Y0018424D01*
X0655333Y0018518D01*
X0655304Y0018613D01*
X0655279Y0018709D01*
X0655257Y0018806D01*
X0655240Y0018904D01*
X0655226Y0019002D01*
X0655216Y0019101D01*
X0655210Y0019201D01*
X0655208Y0019300D01*
X0485833Y0019300D02*
X0485835Y0019399D01*
X0485841Y0019499D01*
X0485851Y0019598D01*
X0485865Y0019696D01*
X0485882Y0019794D01*
X0485904Y0019891D01*
X0485929Y0019987D01*
X0485958Y0020082D01*
X0485991Y0020176D01*
X0486028Y0020268D01*
X0486068Y0020359D01*
X0486112Y0020448D01*
X0486160Y0020536D01*
X0486211Y0020621D01*
X0486265Y0020704D01*
X0486322Y0020786D01*
X0486383Y0020864D01*
X0486447Y0020941D01*
X0486513Y0021014D01*
X0486583Y0021085D01*
X0486655Y0021153D01*
X0486730Y0021219D01*
X0486808Y0021281D01*
X0486888Y0021340D01*
X0486970Y0021396D01*
X0487054Y0021448D01*
X0487141Y0021497D01*
X0487229Y0021543D01*
X0487319Y0021585D01*
X0487411Y0021624D01*
X0487504Y0021659D01*
X0487598Y0021690D01*
X0487694Y0021717D01*
X0487791Y0021740D01*
X0487888Y0021760D01*
X0487986Y0021776D01*
X0488085Y0021788D01*
X0488184Y0021796D01*
X0488283Y0021800D01*
X0488383Y0021800D01*
X0488482Y0021796D01*
X0488581Y0021788D01*
X0488680Y0021776D01*
X0488778Y0021760D01*
X0488875Y0021740D01*
X0488972Y0021717D01*
X0489068Y0021690D01*
X0489162Y0021659D01*
X0489255Y0021624D01*
X0489347Y0021585D01*
X0489437Y0021543D01*
X0489525Y0021497D01*
X0489612Y0021448D01*
X0489696Y0021396D01*
X0489778Y0021340D01*
X0489858Y0021281D01*
X0489936Y0021219D01*
X0490011Y0021153D01*
X0490083Y0021085D01*
X0490153Y0021014D01*
X0490219Y0020941D01*
X0490283Y0020864D01*
X0490344Y0020786D01*
X0490401Y0020704D01*
X0490455Y0020621D01*
X0490506Y0020536D01*
X0490554Y0020448D01*
X0490598Y0020359D01*
X0490638Y0020268D01*
X0490675Y0020176D01*
X0490708Y0020082D01*
X0490737Y0019987D01*
X0490762Y0019891D01*
X0490784Y0019794D01*
X0490801Y0019696D01*
X0490815Y0019598D01*
X0490825Y0019499D01*
X0490831Y0019399D01*
X0490833Y0019300D01*
X0490831Y0019201D01*
X0490825Y0019101D01*
X0490815Y0019002D01*
X0490801Y0018904D01*
X0490784Y0018806D01*
X0490762Y0018709D01*
X0490737Y0018613D01*
X0490708Y0018518D01*
X0490675Y0018424D01*
X0490638Y0018332D01*
X0490598Y0018241D01*
X0490554Y0018152D01*
X0490506Y0018064D01*
X0490455Y0017979D01*
X0490401Y0017896D01*
X0490344Y0017814D01*
X0490283Y0017736D01*
X0490219Y0017659D01*
X0490153Y0017586D01*
X0490083Y0017515D01*
X0490011Y0017447D01*
X0489936Y0017381D01*
X0489858Y0017319D01*
X0489778Y0017260D01*
X0489696Y0017204D01*
X0489612Y0017152D01*
X0489525Y0017103D01*
X0489437Y0017057D01*
X0489347Y0017015D01*
X0489255Y0016976D01*
X0489162Y0016941D01*
X0489068Y0016910D01*
X0488972Y0016883D01*
X0488875Y0016860D01*
X0488778Y0016840D01*
X0488680Y0016824D01*
X0488581Y0016812D01*
X0488482Y0016804D01*
X0488383Y0016800D01*
X0488283Y0016800D01*
X0488184Y0016804D01*
X0488085Y0016812D01*
X0487986Y0016824D01*
X0487888Y0016840D01*
X0487791Y0016860D01*
X0487694Y0016883D01*
X0487598Y0016910D01*
X0487504Y0016941D01*
X0487411Y0016976D01*
X0487319Y0017015D01*
X0487229Y0017057D01*
X0487141Y0017103D01*
X0487054Y0017152D01*
X0486970Y0017204D01*
X0486888Y0017260D01*
X0486808Y0017319D01*
X0486730Y0017381D01*
X0486655Y0017447D01*
X0486583Y0017515D01*
X0486513Y0017586D01*
X0486447Y0017659D01*
X0486383Y0017736D01*
X0486322Y0017814D01*
X0486265Y0017896D01*
X0486211Y0017979D01*
X0486160Y0018064D01*
X0486112Y0018152D01*
X0486068Y0018241D01*
X0486028Y0018332D01*
X0485991Y0018424D01*
X0485958Y0018518D01*
X0485929Y0018613D01*
X0485904Y0018709D01*
X0485882Y0018806D01*
X0485865Y0018904D01*
X0485851Y0019002D01*
X0485841Y0019101D01*
X0485835Y0019201D01*
X0485833Y0019300D01*
X0485833Y0031800D02*
X0485835Y0031899D01*
X0485841Y0031999D01*
X0485851Y0032098D01*
X0485865Y0032196D01*
X0485882Y0032294D01*
X0485904Y0032391D01*
X0485929Y0032487D01*
X0485958Y0032582D01*
X0485991Y0032676D01*
X0486028Y0032768D01*
X0486068Y0032859D01*
X0486112Y0032948D01*
X0486160Y0033036D01*
X0486211Y0033121D01*
X0486265Y0033204D01*
X0486322Y0033286D01*
X0486383Y0033364D01*
X0486447Y0033441D01*
X0486513Y0033514D01*
X0486583Y0033585D01*
X0486655Y0033653D01*
X0486730Y0033719D01*
X0486808Y0033781D01*
X0486888Y0033840D01*
X0486970Y0033896D01*
X0487054Y0033948D01*
X0487141Y0033997D01*
X0487229Y0034043D01*
X0487319Y0034085D01*
X0487411Y0034124D01*
X0487504Y0034159D01*
X0487598Y0034190D01*
X0487694Y0034217D01*
X0487791Y0034240D01*
X0487888Y0034260D01*
X0487986Y0034276D01*
X0488085Y0034288D01*
X0488184Y0034296D01*
X0488283Y0034300D01*
X0488383Y0034300D01*
X0488482Y0034296D01*
X0488581Y0034288D01*
X0488680Y0034276D01*
X0488778Y0034260D01*
X0488875Y0034240D01*
X0488972Y0034217D01*
X0489068Y0034190D01*
X0489162Y0034159D01*
X0489255Y0034124D01*
X0489347Y0034085D01*
X0489437Y0034043D01*
X0489525Y0033997D01*
X0489612Y0033948D01*
X0489696Y0033896D01*
X0489778Y0033840D01*
X0489858Y0033781D01*
X0489936Y0033719D01*
X0490011Y0033653D01*
X0490083Y0033585D01*
X0490153Y0033514D01*
X0490219Y0033441D01*
X0490283Y0033364D01*
X0490344Y0033286D01*
X0490401Y0033204D01*
X0490455Y0033121D01*
X0490506Y0033036D01*
X0490554Y0032948D01*
X0490598Y0032859D01*
X0490638Y0032768D01*
X0490675Y0032676D01*
X0490708Y0032582D01*
X0490737Y0032487D01*
X0490762Y0032391D01*
X0490784Y0032294D01*
X0490801Y0032196D01*
X0490815Y0032098D01*
X0490825Y0031999D01*
X0490831Y0031899D01*
X0490833Y0031800D01*
X0490831Y0031701D01*
X0490825Y0031601D01*
X0490815Y0031502D01*
X0490801Y0031404D01*
X0490784Y0031306D01*
X0490762Y0031209D01*
X0490737Y0031113D01*
X0490708Y0031018D01*
X0490675Y0030924D01*
X0490638Y0030832D01*
X0490598Y0030741D01*
X0490554Y0030652D01*
X0490506Y0030564D01*
X0490455Y0030479D01*
X0490401Y0030396D01*
X0490344Y0030314D01*
X0490283Y0030236D01*
X0490219Y0030159D01*
X0490153Y0030086D01*
X0490083Y0030015D01*
X0490011Y0029947D01*
X0489936Y0029881D01*
X0489858Y0029819D01*
X0489778Y0029760D01*
X0489696Y0029704D01*
X0489612Y0029652D01*
X0489525Y0029603D01*
X0489437Y0029557D01*
X0489347Y0029515D01*
X0489255Y0029476D01*
X0489162Y0029441D01*
X0489068Y0029410D01*
X0488972Y0029383D01*
X0488875Y0029360D01*
X0488778Y0029340D01*
X0488680Y0029324D01*
X0488581Y0029312D01*
X0488482Y0029304D01*
X0488383Y0029300D01*
X0488283Y0029300D01*
X0488184Y0029304D01*
X0488085Y0029312D01*
X0487986Y0029324D01*
X0487888Y0029340D01*
X0487791Y0029360D01*
X0487694Y0029383D01*
X0487598Y0029410D01*
X0487504Y0029441D01*
X0487411Y0029476D01*
X0487319Y0029515D01*
X0487229Y0029557D01*
X0487141Y0029603D01*
X0487054Y0029652D01*
X0486970Y0029704D01*
X0486888Y0029760D01*
X0486808Y0029819D01*
X0486730Y0029881D01*
X0486655Y0029947D01*
X0486583Y0030015D01*
X0486513Y0030086D01*
X0486447Y0030159D01*
X0486383Y0030236D01*
X0486322Y0030314D01*
X0486265Y0030396D01*
X0486211Y0030479D01*
X0486160Y0030564D01*
X0486112Y0030652D01*
X0486068Y0030741D01*
X0486028Y0030832D01*
X0485991Y0030924D01*
X0485958Y0031018D01*
X0485929Y0031113D01*
X0485904Y0031209D01*
X0485882Y0031306D01*
X0485865Y0031404D01*
X0485851Y0031502D01*
X0485841Y0031601D01*
X0485835Y0031701D01*
X0485833Y0031800D01*
X0655208Y0031800D02*
X0655210Y0031899D01*
X0655216Y0031999D01*
X0655226Y0032098D01*
X0655240Y0032196D01*
X0655257Y0032294D01*
X0655279Y0032391D01*
X0655304Y0032487D01*
X0655333Y0032582D01*
X0655366Y0032676D01*
X0655403Y0032768D01*
X0655443Y0032859D01*
X0655487Y0032948D01*
X0655535Y0033036D01*
X0655586Y0033121D01*
X0655640Y0033204D01*
X0655697Y0033286D01*
X0655758Y0033364D01*
X0655822Y0033441D01*
X0655888Y0033514D01*
X0655958Y0033585D01*
X0656030Y0033653D01*
X0656105Y0033719D01*
X0656183Y0033781D01*
X0656263Y0033840D01*
X0656345Y0033896D01*
X0656429Y0033948D01*
X0656516Y0033997D01*
X0656604Y0034043D01*
X0656694Y0034085D01*
X0656786Y0034124D01*
X0656879Y0034159D01*
X0656973Y0034190D01*
X0657069Y0034217D01*
X0657166Y0034240D01*
X0657263Y0034260D01*
X0657361Y0034276D01*
X0657460Y0034288D01*
X0657559Y0034296D01*
X0657658Y0034300D01*
X0657758Y0034300D01*
X0657857Y0034296D01*
X0657956Y0034288D01*
X0658055Y0034276D01*
X0658153Y0034260D01*
X0658250Y0034240D01*
X0658347Y0034217D01*
X0658443Y0034190D01*
X0658537Y0034159D01*
X0658630Y0034124D01*
X0658722Y0034085D01*
X0658812Y0034043D01*
X0658900Y0033997D01*
X0658987Y0033948D01*
X0659071Y0033896D01*
X0659153Y0033840D01*
X0659233Y0033781D01*
X0659311Y0033719D01*
X0659386Y0033653D01*
X0659458Y0033585D01*
X0659528Y0033514D01*
X0659594Y0033441D01*
X0659658Y0033364D01*
X0659719Y0033286D01*
X0659776Y0033204D01*
X0659830Y0033121D01*
X0659881Y0033036D01*
X0659929Y0032948D01*
X0659973Y0032859D01*
X0660013Y0032768D01*
X0660050Y0032676D01*
X0660083Y0032582D01*
X0660112Y0032487D01*
X0660137Y0032391D01*
X0660159Y0032294D01*
X0660176Y0032196D01*
X0660190Y0032098D01*
X0660200Y0031999D01*
X0660206Y0031899D01*
X0660208Y0031800D01*
X0660206Y0031701D01*
X0660200Y0031601D01*
X0660190Y0031502D01*
X0660176Y0031404D01*
X0660159Y0031306D01*
X0660137Y0031209D01*
X0660112Y0031113D01*
X0660083Y0031018D01*
X0660050Y0030924D01*
X0660013Y0030832D01*
X0659973Y0030741D01*
X0659929Y0030652D01*
X0659881Y0030564D01*
X0659830Y0030479D01*
X0659776Y0030396D01*
X0659719Y0030314D01*
X0659658Y0030236D01*
X0659594Y0030159D01*
X0659528Y0030086D01*
X0659458Y0030015D01*
X0659386Y0029947D01*
X0659311Y0029881D01*
X0659233Y0029819D01*
X0659153Y0029760D01*
X0659071Y0029704D01*
X0658987Y0029652D01*
X0658900Y0029603D01*
X0658812Y0029557D01*
X0658722Y0029515D01*
X0658630Y0029476D01*
X0658537Y0029441D01*
X0658443Y0029410D01*
X0658347Y0029383D01*
X0658250Y0029360D01*
X0658153Y0029340D01*
X0658055Y0029324D01*
X0657956Y0029312D01*
X0657857Y0029304D01*
X0657758Y0029300D01*
X0657658Y0029300D01*
X0657559Y0029304D01*
X0657460Y0029312D01*
X0657361Y0029324D01*
X0657263Y0029340D01*
X0657166Y0029360D01*
X0657069Y0029383D01*
X0656973Y0029410D01*
X0656879Y0029441D01*
X0656786Y0029476D01*
X0656694Y0029515D01*
X0656604Y0029557D01*
X0656516Y0029603D01*
X0656429Y0029652D01*
X0656345Y0029704D01*
X0656263Y0029760D01*
X0656183Y0029819D01*
X0656105Y0029881D01*
X0656030Y0029947D01*
X0655958Y0030015D01*
X0655888Y0030086D01*
X0655822Y0030159D01*
X0655758Y0030236D01*
X0655697Y0030314D01*
X0655640Y0030396D01*
X0655586Y0030479D01*
X0655535Y0030564D01*
X0655487Y0030652D01*
X0655443Y0030741D01*
X0655403Y0030832D01*
X0655366Y0030924D01*
X0655333Y0031018D01*
X0655304Y0031113D01*
X0655279Y0031209D01*
X0655257Y0031306D01*
X0655240Y0031404D01*
X0655226Y0031502D01*
X0655216Y0031601D01*
X0655210Y0031701D01*
X0655208Y0031800D01*
M02*
