G75*
%MOIN*%
%OFA0B0*%
%FSLAX25Y25*%
%IPPOS*%
%LPD*%
%AMOC8*
5,1,8,0,0,1.08239X$1,22.5*
%
%ADD10R,0.03937X0.07874*%
%ADD11C,0.03600*%
%ADD12C,0.01000*%
D10*
X0547083Y0014054D03*
X0567083Y0014054D03*
X0587083Y0014054D03*
X0577083Y0027046D03*
X0557083Y0027046D03*
X0597083Y0027046D03*
D11*
X0546458Y0030550D03*
X0563021Y0032112D03*
X0607708Y0033050D03*
X0570208Y0021175D03*
X0557708Y0019300D03*
X0535833Y0019300D03*
X0517083Y0018675D03*
X0503333Y0018675D03*
X0576458Y0013050D03*
X0602708Y0008050D03*
X0593333Y0006175D03*
X0640833Y0019925D03*
D12*
X0492298Y0013366D02*
X0491536Y0013050D01*
X0492298Y0012734D01*
X0494268Y0010765D01*
X0495333Y0008192D01*
X0495333Y0007100D01*
X0546113Y0007100D01*
X0545283Y0007929D01*
X0545283Y0008817D01*
X0544576Y0008817D01*
X0543815Y0009578D01*
X0543815Y0018529D01*
X0544576Y0019291D01*
X0544658Y0019291D01*
X0544658Y0027966D01*
X0543830Y0028794D01*
X0543358Y0029933D01*
X0543358Y0031167D01*
X0543496Y0031500D01*
X0495333Y0031500D01*
X0495333Y0030408D01*
X0494268Y0027835D01*
X0492298Y0025866D01*
X0491536Y0025550D01*
X0492298Y0025234D01*
X0494268Y0023265D01*
X0495333Y0020692D01*
X0495333Y0017908D01*
X0494268Y0015335D01*
X0492298Y0013366D01*
X0492715Y0013782D02*
X0543815Y0013782D01*
X0546458Y0014679D02*
X0547083Y0014054D01*
X0547083Y0008675D01*
X0548333Y0007425D01*
X0574583Y0007425D01*
X0576458Y0009300D01*
X0576458Y0013050D01*
X0573358Y0012784D02*
X0570352Y0012784D01*
X0573358Y0012433D02*
X0573830Y0011294D01*
X0574658Y0010466D01*
X0574658Y0010046D01*
X0573838Y0009225D01*
X0569998Y0009225D01*
X0570352Y0009578D01*
X0570352Y0018075D01*
X0570825Y0018075D01*
X0571964Y0018547D01*
X0572836Y0019419D01*
X0573308Y0020558D01*
X0573308Y0021792D01*
X0572836Y0022931D01*
X0571964Y0023803D01*
X0570825Y0024275D01*
X0569592Y0024275D01*
X0568452Y0023803D01*
X0567580Y0022931D01*
X0567108Y0021792D01*
X0567108Y0020621D01*
X0566338Y0019850D01*
X0565779Y0019291D01*
X0564576Y0019291D01*
X0563815Y0018529D01*
X0563815Y0009578D01*
X0564168Y0009225D01*
X0549998Y0009225D01*
X0550352Y0009578D01*
X0550352Y0018529D01*
X0549590Y0019291D01*
X0548258Y0019291D01*
X0548258Y0027966D01*
X0549086Y0028794D01*
X0549558Y0029933D01*
X0549558Y0031167D01*
X0549420Y0031500D01*
X0553700Y0031500D01*
X0553615Y0031181D01*
X0553615Y0027530D01*
X0556599Y0027530D01*
X0556599Y0026562D01*
X0553615Y0026562D01*
X0553615Y0022912D01*
X0553717Y0022530D01*
X0553915Y0022188D01*
X0554194Y0021909D01*
X0554536Y0021711D01*
X0554917Y0021609D01*
X0556599Y0021609D01*
X0556599Y0026562D01*
X0557568Y0026562D01*
X0557568Y0027530D01*
X0560552Y0027530D01*
X0560552Y0031181D01*
X0560466Y0031500D01*
X0573815Y0031500D01*
X0573815Y0022571D01*
X0574576Y0021809D01*
X0576533Y0021809D01*
X0576533Y0020429D01*
X0578408Y0018554D01*
X0579463Y0017500D01*
X0583615Y0017500D01*
X0583615Y0014538D01*
X0586599Y0014538D01*
X0586599Y0013570D01*
X0583615Y0013570D01*
X0583615Y0009919D01*
X0583717Y0009538D01*
X0583915Y0009196D01*
X0584194Y0008917D01*
X0584536Y0008719D01*
X0584917Y0008617D01*
X0586599Y0008617D01*
X0586599Y0013570D01*
X0587568Y0013570D01*
X0587568Y0014538D01*
X0590552Y0014538D01*
X0590552Y0017036D01*
X0592158Y0015429D01*
X0592158Y0009044D01*
X0591577Y0008803D01*
X0590705Y0007931D01*
X0590361Y0007100D01*
X0576804Y0007100D01*
X0577204Y0007500D01*
X0578258Y0008554D01*
X0578258Y0010466D01*
X0579086Y0011294D01*
X0579558Y0012433D01*
X0579558Y0013667D01*
X0579086Y0014806D01*
X0578214Y0015678D01*
X0577075Y0016150D01*
X0575842Y0016150D01*
X0574702Y0015678D01*
X0573830Y0014806D01*
X0573358Y0013667D01*
X0573358Y0012433D01*
X0573627Y0011785D02*
X0570352Y0011785D01*
X0563815Y0011785D02*
X0550352Y0011785D01*
X0543815Y0011785D02*
X0493248Y0011785D01*
X0492179Y0012784D02*
X0543815Y0012784D01*
X0550352Y0012784D02*
X0563815Y0012784D01*
X0563815Y0013782D02*
X0550352Y0013782D01*
X0550352Y0014781D02*
X0563815Y0014781D01*
X0570352Y0014781D02*
X0573820Y0014781D01*
X0579097Y0014781D02*
X0583615Y0014781D01*
X0590552Y0014781D02*
X0592158Y0014781D01*
X0595758Y0014781D02*
X0652328Y0014781D01*
X0651774Y0015335D02*
X0653743Y0013366D01*
X0654505Y0013050D01*
X0653743Y0012734D01*
X0651774Y0010765D01*
X0650708Y0008192D01*
X0650708Y0007100D01*
X0596306Y0007100D01*
X0595961Y0007931D01*
X0595758Y0008134D01*
X0595758Y0016921D01*
X0594704Y0017975D01*
X0591579Y0021100D01*
X0580954Y0021100D01*
X0580133Y0021921D01*
X0580133Y0022352D01*
X0580352Y0022571D01*
X0580352Y0031500D01*
X0593815Y0031500D01*
X0593815Y0022571D01*
X0594576Y0021809D01*
X0599590Y0021809D01*
X0600352Y0022571D01*
X0600352Y0031250D01*
X0605124Y0031250D01*
X0605952Y0030422D01*
X0607092Y0029950D01*
X0608325Y0029950D01*
X0609464Y0030422D01*
X0610336Y0031294D01*
X0610422Y0031500D01*
X0650708Y0031500D01*
X0650708Y0030408D01*
X0651774Y0027835D01*
X0653743Y0025866D01*
X0654505Y0025550D01*
X0653743Y0025234D01*
X0651774Y0023265D01*
X0650708Y0020692D01*
X0650708Y0017908D01*
X0651774Y0015335D01*
X0651590Y0015779D02*
X0595758Y0015779D01*
X0593958Y0016175D02*
X0593958Y0006800D01*
X0593333Y0006175D01*
X0590647Y0007791D02*
X0577495Y0007791D01*
X0578258Y0008790D02*
X0584414Y0008790D01*
X0586599Y0008790D02*
X0587568Y0008790D01*
X0587568Y0008617D02*
X0589249Y0008617D01*
X0589631Y0008719D01*
X0589973Y0008917D01*
X0590252Y0009196D01*
X0590450Y0009538D01*
X0590552Y0009919D01*
X0590552Y0013570D01*
X0587568Y0013570D01*
X0587568Y0008617D01*
X0589753Y0008790D02*
X0591564Y0008790D01*
X0595758Y0008790D02*
X0650956Y0008790D01*
X0650708Y0007791D02*
X0596019Y0007791D01*
X0595758Y0009788D02*
X0651369Y0009788D01*
X0651795Y0010787D02*
X0595758Y0010787D01*
X0592158Y0010787D02*
X0590552Y0010787D01*
X0587568Y0010787D02*
X0586599Y0010787D01*
X0583615Y0010787D02*
X0578579Y0010787D01*
X0574338Y0010787D02*
X0570352Y0010787D01*
X0563815Y0010787D02*
X0550352Y0010787D01*
X0543815Y0010787D02*
X0494246Y0010787D01*
X0494672Y0009788D02*
X0543815Y0009788D01*
X0550352Y0009788D02*
X0563815Y0009788D01*
X0570352Y0009788D02*
X0574401Y0009788D01*
X0578258Y0009788D02*
X0583650Y0009788D01*
X0586599Y0009788D02*
X0587568Y0009788D01*
X0590517Y0009788D02*
X0592158Y0009788D01*
X0592158Y0011785D02*
X0590552Y0011785D01*
X0587568Y0011785D02*
X0586599Y0011785D01*
X0583615Y0011785D02*
X0579290Y0011785D01*
X0579558Y0012784D02*
X0583615Y0012784D01*
X0586599Y0012784D02*
X0587568Y0012784D01*
X0590552Y0012784D02*
X0592158Y0012784D01*
X0595758Y0012784D02*
X0653862Y0012784D01*
X0653327Y0013782D02*
X0595758Y0013782D01*
X0592158Y0013782D02*
X0587568Y0013782D01*
X0586599Y0013782D02*
X0579510Y0013782D01*
X0573406Y0013782D02*
X0570352Y0013782D01*
X0567083Y0014054D02*
X0567083Y0018050D01*
X0570208Y0021175D01*
X0567108Y0020772D02*
X0548258Y0020772D01*
X0544658Y0020772D02*
X0495300Y0020772D01*
X0494887Y0021770D02*
X0544658Y0021770D01*
X0548258Y0021770D02*
X0554434Y0021770D01*
X0556599Y0021770D02*
X0557568Y0021770D01*
X0557568Y0021609D02*
X0559249Y0021609D01*
X0559631Y0021711D01*
X0559973Y0021909D01*
X0560252Y0022188D01*
X0560450Y0022530D01*
X0560552Y0022912D01*
X0560552Y0026562D01*
X0557568Y0026562D01*
X0557568Y0021609D01*
X0559733Y0021770D02*
X0567108Y0021770D01*
X0573308Y0021770D02*
X0576533Y0021770D01*
X0578333Y0021175D02*
X0580208Y0019300D01*
X0590833Y0019300D01*
X0593958Y0016175D01*
X0591809Y0015779D02*
X0590552Y0015779D01*
X0583615Y0015779D02*
X0577970Y0015779D01*
X0574946Y0015779D02*
X0570352Y0015779D01*
X0563815Y0015779D02*
X0550352Y0015779D01*
X0543815Y0015779D02*
X0494452Y0015779D01*
X0493713Y0014781D02*
X0543815Y0014781D01*
X0546458Y0014679D02*
X0546458Y0030550D01*
X0543358Y0030757D02*
X0495333Y0030757D01*
X0495064Y0029758D02*
X0543431Y0029758D01*
X0549486Y0029758D02*
X0553615Y0029758D01*
X0560552Y0029758D02*
X0573815Y0029758D01*
X0580352Y0029758D02*
X0593815Y0029758D01*
X0600352Y0029758D02*
X0650977Y0029758D01*
X0650708Y0030757D02*
X0609799Y0030757D01*
X0605617Y0030757D02*
X0600352Y0030757D01*
X0593815Y0030757D02*
X0580352Y0030757D01*
X0573815Y0030757D02*
X0560552Y0030757D01*
X0553615Y0030757D02*
X0549558Y0030757D01*
X0557083Y0032425D02*
X0557708Y0033050D01*
X0562083Y0033050D01*
X0563021Y0032112D01*
X0557083Y0032425D02*
X0557083Y0027046D01*
X0556599Y0026763D02*
X0548258Y0026763D01*
X0544658Y0026763D02*
X0493196Y0026763D01*
X0492054Y0025764D02*
X0544658Y0025764D01*
X0548258Y0025764D02*
X0553615Y0025764D01*
X0556599Y0025764D02*
X0557568Y0025764D01*
X0560552Y0025764D02*
X0573815Y0025764D01*
X0577083Y0027046D02*
X0578333Y0025796D01*
X0578333Y0021175D01*
X0576533Y0020772D02*
X0573308Y0020772D01*
X0580284Y0021770D02*
X0651155Y0021770D01*
X0650741Y0020772D02*
X0591907Y0020772D01*
X0592906Y0019773D02*
X0650708Y0019773D01*
X0650708Y0018775D02*
X0593904Y0018775D01*
X0578188Y0018775D02*
X0572192Y0018775D01*
X0572983Y0019773D02*
X0577190Y0019773D01*
X0566261Y0019773D02*
X0548258Y0019773D01*
X0544658Y0019773D02*
X0495333Y0019773D01*
X0495333Y0018775D02*
X0544060Y0018775D01*
X0550107Y0018775D02*
X0564060Y0018775D01*
X0563815Y0017776D02*
X0550352Y0017776D01*
X0543815Y0017776D02*
X0495279Y0017776D01*
X0494865Y0016778D02*
X0543815Y0016778D01*
X0550352Y0016778D02*
X0563815Y0016778D01*
X0570352Y0016778D02*
X0583615Y0016778D01*
X0590552Y0016778D02*
X0590810Y0016778D01*
X0595758Y0016778D02*
X0651176Y0016778D01*
X0650763Y0017776D02*
X0594903Y0017776D01*
X0579187Y0017776D02*
X0570352Y0017776D01*
X0572904Y0022769D02*
X0573815Y0022769D01*
X0567513Y0022769D02*
X0560514Y0022769D01*
X0557568Y0022769D02*
X0556599Y0022769D01*
X0553653Y0022769D02*
X0548258Y0022769D01*
X0544658Y0022769D02*
X0494473Y0022769D01*
X0493766Y0023767D02*
X0544658Y0023767D01*
X0548258Y0023767D02*
X0553615Y0023767D01*
X0556599Y0023767D02*
X0557568Y0023767D01*
X0560552Y0023767D02*
X0568417Y0023767D01*
X0572000Y0023767D02*
X0573815Y0023767D01*
X0580352Y0023767D02*
X0593815Y0023767D01*
X0600352Y0023767D02*
X0652276Y0023767D01*
X0651568Y0022769D02*
X0600352Y0022769D01*
X0593815Y0022769D02*
X0580352Y0022769D01*
X0580352Y0024766D02*
X0593815Y0024766D01*
X0600352Y0024766D02*
X0653275Y0024766D01*
X0653988Y0025764D02*
X0600352Y0025764D01*
X0593815Y0025764D02*
X0580352Y0025764D01*
X0580352Y0026763D02*
X0593815Y0026763D01*
X0597083Y0027046D02*
X0597083Y0032425D01*
X0597708Y0033050D01*
X0607708Y0033050D01*
X0600352Y0028760D02*
X0651391Y0028760D01*
X0651848Y0027761D02*
X0600352Y0027761D01*
X0593815Y0027761D02*
X0580352Y0027761D01*
X0573815Y0027761D02*
X0560552Y0027761D01*
X0553615Y0027761D02*
X0548258Y0027761D01*
X0544658Y0027761D02*
X0494194Y0027761D01*
X0494651Y0028760D02*
X0543864Y0028760D01*
X0549052Y0028760D02*
X0553615Y0028760D01*
X0560552Y0028760D02*
X0573815Y0028760D01*
X0580352Y0028760D02*
X0593815Y0028760D01*
X0600352Y0026763D02*
X0652846Y0026763D01*
X0573815Y0026763D02*
X0557568Y0026763D01*
X0557568Y0024766D02*
X0556599Y0024766D01*
X0553615Y0024766D02*
X0548258Y0024766D01*
X0544658Y0024766D02*
X0492767Y0024766D01*
X0560552Y0024766D02*
X0573815Y0024766D01*
X0595758Y0011785D02*
X0652794Y0011785D01*
X0545422Y0007791D02*
X0495333Y0007791D01*
X0495086Y0008790D02*
X0545283Y0008790D01*
M02*
