G75*
%MOIN*%
%OFA0B0*%
%FSLAX25Y25*%
%IPPOS*%
%LPD*%
%AMOC8*
5,1,8,0,0,1.08239X$1,22.5*
%
%ADD10C,0.00500*%
D10*
X0541690Y0015629D02*
X0543737Y0015629D01*
X0541690Y0015629D02*
X0541690Y0025471D01*
X0554237Y0025471D01*
X0560190Y0025471D02*
X0573977Y0025471D01*
X0580190Y0025471D02*
X0593977Y0025471D01*
X0600430Y0025471D02*
X0602477Y0025471D01*
X0602477Y0015629D01*
X0589930Y0015629D01*
X0591008Y0015978D02*
X0591008Y0017330D01*
X0591459Y0017780D01*
X0593260Y0017780D01*
X0593711Y0017330D01*
X0593711Y0015978D01*
X0591008Y0015978D01*
X0584316Y0015629D02*
X0569851Y0015629D01*
X0570383Y0015179D02*
X0570383Y0016080D01*
X0570834Y0016530D01*
X0572635Y0016530D01*
X0573086Y0016080D01*
X0573086Y0015179D01*
X0572635Y0014728D01*
X0570834Y0014728D01*
X0570383Y0015179D01*
X0564316Y0015629D02*
X0549851Y0015629D01*
X0551008Y0015008D02*
X0551459Y0015459D01*
X0553260Y0015459D02*
X0553711Y0015008D01*
X0553711Y0014107D01*
X0553260Y0013657D01*
X0551459Y0013657D01*
X0551008Y0014107D01*
X0551008Y0015008D01*
X0570383Y0013133D02*
X0570834Y0013584D01*
X0572635Y0013584D01*
X0573086Y0013133D01*
X0573086Y0011782D01*
X0570383Y0011782D01*
X0570383Y0013133D01*
X0553711Y0012512D02*
X0551909Y0012512D01*
X0551008Y0011611D01*
X0551909Y0010710D01*
X0553711Y0010710D01*
X0591008Y0010536D02*
X0591008Y0011437D01*
X0591459Y0011887D01*
X0592359Y0011887D01*
X0592359Y0010986D01*
X0593260Y0011887D02*
X0593711Y0011437D01*
X0593711Y0010536D01*
X0593260Y0010085D01*
X0591459Y0010085D01*
X0591008Y0010536D01*
X0591008Y0013032D02*
X0593711Y0013032D01*
X0591008Y0014834D01*
X0593711Y0014834D01*
X0553711Y0017054D02*
X0553260Y0016603D01*
X0551459Y0016603D01*
X0551008Y0017054D01*
X0551008Y0017955D01*
X0551459Y0018405D01*
X0553260Y0018405D02*
X0553711Y0017955D01*
X0553711Y0017054D01*
X0561008Y0023661D02*
X0561459Y0023210D01*
X0563260Y0023210D01*
X0563711Y0023661D01*
X0563711Y0024562D01*
X0563260Y0025012D01*
X0562359Y0025012D02*
X0562359Y0024111D01*
X0561459Y0025012D02*
X0561008Y0024562D01*
X0561008Y0023661D01*
X0561459Y0025012D02*
X0562359Y0025012D01*
X0561008Y0026157D02*
X0563711Y0026157D01*
X0561008Y0027959D01*
X0563711Y0027959D01*
X0563711Y0029103D02*
X0563711Y0030455D01*
X0563260Y0030905D01*
X0561459Y0030905D01*
X0561008Y0030455D01*
X0561008Y0029103D01*
X0563711Y0029103D01*
X0580383Y0029111D02*
X0580383Y0028211D01*
X0580383Y0028661D02*
X0583086Y0028661D01*
X0583086Y0028211D02*
X0583086Y0029111D01*
X0600383Y0029554D02*
X0600383Y0030455D01*
X0600834Y0030905D01*
X0602635Y0030905D02*
X0603086Y0030455D01*
X0603086Y0029554D01*
X0602635Y0029103D01*
X0600834Y0029103D01*
X0600383Y0029554D01*
X0600834Y0027959D02*
X0600383Y0027508D01*
X0600383Y0026607D01*
X0600834Y0026157D01*
X0602635Y0026157D01*
X0603086Y0026607D01*
X0603086Y0027508D01*
X0602635Y0027959D01*
X0583086Y0026615D02*
X0583086Y0025264D01*
X0580383Y0025264D01*
X0580383Y0026615D01*
X0580834Y0027066D01*
X0582635Y0027066D01*
X0583086Y0026615D01*
X0600383Y0024111D02*
X0601284Y0025012D01*
X0603086Y0025012D01*
X0601284Y0023210D02*
X0600383Y0024111D01*
X0601284Y0023210D02*
X0603086Y0023210D01*
M02*
