G75*
%MOIN*%
%OFA0B0*%
%FSLAX25Y25*%
%IPPOS*%
%LPD*%
%AMOC8*
5,1,8,0,0,1.08239X$1,22.5*
%
%ADD10C,0.00800*%
%ADD11C,0.01600*%
D10*
X0510943Y0009020D02*
X0510943Y0009930D01*
X0510943Y0009020D02*
X0530433Y0009020D01*
X0530433Y0009000D01*
X0530633Y0009000D01*
X0530633Y0010000D01*
X0562818Y0009930D02*
X0562818Y0009020D01*
X0582308Y0009020D01*
X0582308Y0009000D01*
X0582508Y0009000D01*
X0582508Y0010000D01*
X0614703Y0010170D02*
X0614703Y0009100D01*
X0614903Y0009100D01*
X0614903Y0009090D01*
X0634463Y0009090D01*
X0634463Y0009980D01*
X0634583Y0019300D02*
X0624583Y0009300D01*
X0614583Y0015800D02*
X0614583Y0022500D01*
X0634583Y0022700D02*
X0634583Y0019300D01*
X0634583Y0015900D01*
X0582708Y0016100D02*
X0582708Y0022800D01*
X0562708Y0022700D02*
X0562708Y0019300D01*
X0572708Y0029300D01*
X0582388Y0029500D02*
X0582388Y0029510D01*
X0562828Y0029510D01*
X0562828Y0028620D01*
X0582388Y0029500D02*
X0582588Y0029500D01*
X0582588Y0028430D01*
X0614783Y0028600D02*
X0614783Y0029600D01*
X0614983Y0029600D01*
X0614983Y0029580D01*
X0634473Y0029580D01*
X0634473Y0028670D01*
X0530713Y0028430D02*
X0530713Y0029500D01*
X0530513Y0029500D01*
X0530513Y0029510D01*
X0510953Y0029510D01*
X0510953Y0028620D01*
X0510833Y0019300D02*
X0520833Y0029300D01*
X0530833Y0022800D02*
X0530833Y0016100D01*
X0510833Y0015900D02*
X0510833Y0019300D01*
X0510833Y0022700D01*
X0562708Y0019300D02*
X0562708Y0015900D01*
D11*
X0509583Y0030550D03*
X0561458Y0030550D03*
X0635833Y0008050D03*
M02*
