G75*
%MOIN*%
%OFA0B0*%
%FSLAX25Y25*%
%IPPOS*%
%LPD*%
%AMOC8*
5,1,8,0,0,1.08239X$1,22.5*
%
%ADD10R,0.04331X0.03937*%
%ADD11R,0.06500X0.03937*%
%ADD12C,0.01000*%
%ADD13C,0.03600*%
D10*
X0504362Y0007560D03*
X0511055Y0007560D03*
X0536862Y0007560D03*
X0543555Y0007560D03*
X0569362Y0007560D03*
X0576055Y0007560D03*
X0601862Y0007560D03*
X0608555Y0007560D03*
X0634362Y0007560D03*
X0641055Y0007560D03*
D11*
X0647854Y0015011D03*
X0627563Y0015011D03*
X0615354Y0015011D03*
X0595063Y0015011D03*
X0582854Y0015011D03*
X0562563Y0015011D03*
X0549729Y0015011D03*
X0529438Y0015011D03*
X0517854Y0015011D03*
X0497563Y0015011D03*
X0497563Y0027609D03*
X0517854Y0027609D03*
X0529438Y0027609D03*
X0549729Y0027609D03*
X0562563Y0027609D03*
X0582854Y0027609D03*
X0595063Y0027609D03*
X0615354Y0027609D03*
X0627563Y0027609D03*
X0647854Y0027609D03*
D12*
X0492298Y0026626D02*
X0491536Y0026310D01*
X0492298Y0025994D01*
X0492813Y0025480D01*
X0492813Y0027125D01*
X0497078Y0027125D01*
X0497078Y0028093D01*
X0493766Y0028093D01*
X0492298Y0026626D01*
X0492054Y0026524D02*
X0492813Y0026524D01*
X0497078Y0026524D02*
X0498047Y0026524D01*
X0498047Y0027125D02*
X0498047Y0024141D01*
X0501010Y0024141D01*
X0501392Y0024243D01*
X0501734Y0024440D01*
X0502013Y0024720D01*
X0502210Y0025062D01*
X0502313Y0025443D01*
X0502313Y0027125D01*
X0498047Y0027125D01*
X0498047Y0028093D01*
X0502313Y0028093D01*
X0502313Y0029775D01*
X0502210Y0030157D01*
X0502013Y0030499D01*
X0501734Y0030778D01*
X0501392Y0030975D01*
X0501010Y0031078D01*
X0498047Y0031078D01*
X0498047Y0028094D01*
X0497078Y0028094D01*
X0497078Y0031078D01*
X0495296Y0031078D01*
X0495333Y0031168D01*
X0495333Y0032260D01*
X0573613Y0032260D01*
X0573408Y0032056D01*
X0573408Y0016811D01*
X0571914Y0016811D01*
X0568838Y0013735D01*
X0567783Y0012681D01*
X0567783Y0010828D01*
X0566658Y0010828D01*
X0565897Y0010067D01*
X0565897Y0009360D01*
X0557167Y0009360D01*
X0556339Y0010188D01*
X0555200Y0010660D01*
X0553967Y0010660D01*
X0552827Y0010188D01*
X0551999Y0009360D01*
X0551529Y0009360D01*
X0551529Y0011742D01*
X0553517Y0011742D01*
X0554279Y0012504D01*
X0554279Y0015319D01*
X0556387Y0013211D01*
X0558013Y0013211D01*
X0558013Y0012504D01*
X0558774Y0011742D01*
X0566351Y0011742D01*
X0567113Y0012504D01*
X0567113Y0017518D01*
X0566351Y0018279D01*
X0558774Y0018279D01*
X0558013Y0017518D01*
X0558013Y0016811D01*
X0557878Y0016811D01*
X0551383Y0023306D01*
X0551383Y0024341D01*
X0553517Y0024341D01*
X0554279Y0025102D01*
X0554279Y0030116D01*
X0553517Y0030878D01*
X0545941Y0030878D01*
X0545179Y0030116D01*
X0545179Y0025102D01*
X0545941Y0024341D01*
X0547783Y0024341D01*
X0547783Y0021814D01*
X0548838Y0020760D01*
X0551318Y0018279D01*
X0545941Y0018279D01*
X0545179Y0017518D01*
X0545179Y0012504D01*
X0545941Y0011742D01*
X0547929Y0011742D01*
X0547929Y0009360D01*
X0547020Y0009360D01*
X0547020Y0010067D01*
X0546259Y0010828D01*
X0540851Y0010828D01*
X0540317Y0010295D01*
X0540228Y0010450D01*
X0539948Y0010729D01*
X0539606Y0010926D01*
X0539225Y0011028D01*
X0537346Y0011028D01*
X0537346Y0008044D01*
X0536378Y0008044D01*
X0536378Y0007860D01*
X0524558Y0007860D01*
X0524558Y0008177D01*
X0524086Y0009316D01*
X0523214Y0010188D01*
X0522075Y0010660D01*
X0520904Y0010660D01*
X0519822Y0011742D01*
X0521642Y0011742D01*
X0522404Y0012504D01*
X0522404Y0017518D01*
X0521642Y0018279D01*
X0514066Y0018279D01*
X0513304Y0017518D01*
X0513304Y0012504D01*
X0514066Y0011742D01*
X0516054Y0011742D01*
X0516054Y0010419D01*
X0517113Y0009360D01*
X0514520Y0009360D01*
X0514520Y0010067D01*
X0513759Y0010828D01*
X0508351Y0010828D01*
X0507817Y0010295D01*
X0507728Y0010450D01*
X0507448Y0010729D01*
X0507106Y0010926D01*
X0506725Y0011028D01*
X0504846Y0011028D01*
X0504846Y0008044D01*
X0503878Y0008044D01*
X0503878Y0007860D01*
X0495333Y0007860D01*
X0495333Y0008952D01*
X0494268Y0011525D01*
X0494051Y0011742D01*
X0501351Y0011742D01*
X0502113Y0012504D01*
X0502113Y0013211D01*
X0505280Y0013211D01*
X0506579Y0014510D01*
X0507633Y0015564D01*
X0507633Y0018441D01*
X0508214Y0018682D01*
X0509086Y0019554D01*
X0509558Y0020693D01*
X0509558Y0021927D01*
X0509086Y0023066D01*
X0508214Y0023938D01*
X0507075Y0024410D01*
X0505842Y0024410D01*
X0504702Y0023938D01*
X0503830Y0023066D01*
X0503358Y0021927D01*
X0503358Y0020693D01*
X0503830Y0019554D01*
X0504033Y0019351D01*
X0504033Y0017056D01*
X0503789Y0016811D01*
X0502113Y0016811D01*
X0502113Y0017518D01*
X0501351Y0018279D01*
X0495172Y0018279D01*
X0495333Y0018668D01*
X0495333Y0021452D01*
X0494268Y0024025D01*
X0494152Y0024141D01*
X0497078Y0024141D01*
X0497078Y0027125D01*
X0498047Y0027125D01*
X0498047Y0027523D02*
X0513304Y0027523D01*
X0517854Y0027609D02*
X0523284Y0027609D01*
X0523958Y0026935D01*
X0523958Y0023810D01*
X0529583Y0018185D01*
X0529583Y0015156D01*
X0529438Y0015011D01*
X0533988Y0015541D02*
X0545179Y0015541D01*
X0549729Y0015011D02*
X0549729Y0007706D01*
X0549583Y0007560D01*
X0543555Y0007560D01*
X0549583Y0007560D02*
X0554583Y0007560D01*
X0569362Y0007560D01*
X0569583Y0007781D01*
X0569583Y0011935D01*
X0572659Y0015011D01*
X0582854Y0015011D01*
X0575258Y0015011D01*
X0575208Y0015060D01*
X0575208Y0031310D01*
X0577708Y0033810D01*
X0602708Y0033810D01*
X0605833Y0030685D01*
X0605833Y0027560D01*
X0610208Y0023185D01*
X0612708Y0023185D01*
X0615354Y0020539D01*
X0615354Y0015011D01*
X0615354Y0007706D01*
X0615208Y0007560D01*
X0608555Y0007560D01*
X0602346Y0008044D02*
X0601378Y0008044D01*
X0601378Y0007860D01*
X0576539Y0007860D01*
X0576539Y0008044D01*
X0579720Y0008044D01*
X0579720Y0009726D01*
X0579618Y0010107D01*
X0579420Y0010450D01*
X0579141Y0010729D01*
X0578799Y0010926D01*
X0578418Y0011028D01*
X0576539Y0011028D01*
X0576539Y0008044D01*
X0575571Y0008044D01*
X0575571Y0011028D01*
X0573692Y0011028D01*
X0573310Y0010926D01*
X0572968Y0010729D01*
X0572689Y0010450D01*
X0572600Y0010295D01*
X0572066Y0010828D01*
X0571383Y0010828D01*
X0571383Y0011189D01*
X0573405Y0013211D01*
X0578304Y0013211D01*
X0578304Y0012504D01*
X0579066Y0011742D01*
X0586642Y0011742D01*
X0587404Y0012504D01*
X0587404Y0017518D01*
X0586642Y0018279D01*
X0579066Y0018279D01*
X0578304Y0017518D01*
X0578304Y0016811D01*
X0577008Y0016811D01*
X0577008Y0030564D01*
X0578454Y0032010D01*
X0601963Y0032010D01*
X0603931Y0030042D01*
X0603205Y0029316D01*
X0602733Y0028177D01*
X0602733Y0026943D01*
X0603205Y0025804D01*
X0604077Y0024932D01*
X0605217Y0024460D01*
X0606388Y0024460D01*
X0609463Y0021385D01*
X0611963Y0021385D01*
X0613554Y0019794D01*
X0613554Y0018279D01*
X0611566Y0018279D01*
X0610804Y0017518D01*
X0610804Y0012504D01*
X0611566Y0011742D01*
X0613554Y0011742D01*
X0613554Y0009360D01*
X0612020Y0009360D01*
X0612020Y0010067D01*
X0611259Y0010828D01*
X0605851Y0010828D01*
X0605317Y0010295D01*
X0605228Y0010450D01*
X0604948Y0010729D01*
X0604606Y0010926D01*
X0604225Y0011028D01*
X0602346Y0011028D01*
X0602346Y0008044D01*
X0602346Y0008551D02*
X0601378Y0008551D01*
X0601378Y0008044D02*
X0601378Y0011028D01*
X0599499Y0011028D01*
X0599118Y0010926D01*
X0598775Y0010729D01*
X0598496Y0010450D01*
X0598299Y0010107D01*
X0598197Y0009726D01*
X0598197Y0008044D01*
X0601378Y0008044D01*
X0598197Y0008551D02*
X0579720Y0008551D01*
X0576539Y0008551D02*
X0575571Y0008551D01*
X0575571Y0009550D02*
X0576539Y0009550D01*
X0579720Y0009550D02*
X0598197Y0009550D01*
X0601378Y0009550D02*
X0602346Y0009550D01*
X0602346Y0010548D02*
X0601378Y0010548D01*
X0598595Y0010548D02*
X0579322Y0010548D01*
X0576539Y0010548D02*
X0575571Y0010548D01*
X0572788Y0010548D02*
X0572346Y0010548D01*
X0566378Y0010548D02*
X0555470Y0010548D01*
X0553697Y0010548D02*
X0551529Y0010548D01*
X0547929Y0010548D02*
X0546539Y0010548D01*
X0540571Y0010548D02*
X0540129Y0010548D01*
X0537346Y0010548D02*
X0536378Y0010548D01*
X0534499Y0011028D02*
X0534118Y0010926D01*
X0533775Y0010729D01*
X0533496Y0010450D01*
X0533299Y0010107D01*
X0533197Y0009726D01*
X0533197Y0008044D01*
X0536378Y0008044D01*
X0536378Y0011028D01*
X0534499Y0011028D01*
X0533226Y0011742D02*
X0525649Y0011742D01*
X0524888Y0012504D01*
X0524888Y0017518D01*
X0525649Y0018279D01*
X0526943Y0018279D01*
X0522158Y0023064D01*
X0522158Y0024857D01*
X0521642Y0024341D01*
X0514066Y0024341D01*
X0513304Y0025102D01*
X0513304Y0030116D01*
X0514066Y0030878D01*
X0521642Y0030878D01*
X0522404Y0030116D01*
X0522404Y0029409D01*
X0524030Y0029409D01*
X0524688Y0028751D01*
X0524688Y0029775D01*
X0524790Y0030157D01*
X0524987Y0030499D01*
X0525267Y0030778D01*
X0525609Y0030975D01*
X0525990Y0031078D01*
X0528953Y0031078D01*
X0528953Y0028094D01*
X0529922Y0028094D01*
X0529922Y0031078D01*
X0532885Y0031078D01*
X0533267Y0030975D01*
X0533609Y0030778D01*
X0533888Y0030499D01*
X0534085Y0030157D01*
X0534188Y0029775D01*
X0534188Y0028093D01*
X0529922Y0028093D01*
X0529922Y0027125D01*
X0534188Y0027125D01*
X0534188Y0025443D01*
X0534085Y0025062D01*
X0533888Y0024720D01*
X0533609Y0024440D01*
X0533267Y0024243D01*
X0532885Y0024141D01*
X0529922Y0024141D01*
X0529922Y0027125D01*
X0528953Y0027125D01*
X0528953Y0024141D01*
X0526173Y0024141D01*
X0530329Y0019985D01*
X0531383Y0018931D01*
X0531383Y0018279D01*
X0533226Y0018279D01*
X0533988Y0017518D01*
X0533988Y0012504D01*
X0533226Y0011742D01*
X0533988Y0012545D02*
X0545179Y0012545D01*
X0554279Y0012545D02*
X0558013Y0012545D01*
X0551529Y0011547D02*
X0567783Y0011547D01*
X0571741Y0011547D02*
X0613554Y0011547D01*
X0617154Y0011547D02*
X0632783Y0011547D01*
X0632113Y0012504D02*
X0631351Y0011742D01*
X0623774Y0011742D01*
X0623013Y0012504D01*
X0623013Y0015960D01*
X0621338Y0017635D01*
X0620763Y0018210D01*
X0619592Y0018210D01*
X0618452Y0018682D01*
X0617580Y0019554D01*
X0617154Y0020583D01*
X0617154Y0018279D01*
X0619142Y0018279D01*
X0619904Y0017518D01*
X0619904Y0012504D01*
X0619142Y0011742D01*
X0617154Y0011742D01*
X0617154Y0009360D01*
X0630897Y0009360D01*
X0630897Y0010067D01*
X0631658Y0010828D01*
X0632783Y0010828D01*
X0632783Y0024939D01*
X0632113Y0025610D01*
X0632113Y0025102D01*
X0631351Y0024341D01*
X0623774Y0024341D01*
X0623013Y0025102D01*
X0623013Y0030116D01*
X0623774Y0030878D01*
X0631351Y0030878D01*
X0632113Y0030116D01*
X0632113Y0029409D01*
X0633405Y0029409D01*
X0635329Y0027485D01*
X0636383Y0026431D01*
X0636383Y0010828D01*
X0637066Y0010828D01*
X0637600Y0010295D01*
X0637689Y0010450D01*
X0637968Y0010729D01*
X0638310Y0010926D01*
X0638692Y0011028D01*
X0640571Y0011028D01*
X0640571Y0008044D01*
X0641539Y0008044D01*
X0644720Y0008044D01*
X0644720Y0009726D01*
X0644618Y0010107D01*
X0644420Y0010450D01*
X0644141Y0010729D01*
X0643799Y0010926D01*
X0643418Y0011028D01*
X0641539Y0011028D01*
X0641539Y0008044D01*
X0641539Y0007860D01*
X0650708Y0007860D01*
X0650708Y0008952D01*
X0651774Y0011525D01*
X0653743Y0013494D01*
X0654505Y0013810D01*
X0653743Y0014126D01*
X0652374Y0015495D01*
X0648338Y0015495D01*
X0647370Y0015495D01*
X0647370Y0018479D01*
X0644407Y0018479D01*
X0644025Y0018377D01*
X0643683Y0018180D01*
X0643404Y0017900D01*
X0643206Y0017558D01*
X0643104Y0017177D01*
X0643104Y0015495D01*
X0647370Y0015495D01*
X0647370Y0014527D01*
X0643104Y0014527D01*
X0643104Y0012845D01*
X0643206Y0012463D01*
X0643404Y0012121D01*
X0643683Y0011842D01*
X0644025Y0011645D01*
X0644407Y0011542D01*
X0647370Y0011542D01*
X0647370Y0014526D01*
X0648338Y0014526D01*
X0648338Y0011542D01*
X0651301Y0011542D01*
X0651683Y0011645D01*
X0652025Y0011842D01*
X0652304Y0012121D01*
X0652502Y0012463D01*
X0652604Y0012845D01*
X0652604Y0014527D01*
X0648338Y0014527D01*
X0648338Y0015495D01*
X0648338Y0018479D01*
X0650786Y0018479D01*
X0650708Y0018668D01*
X0650708Y0021452D01*
X0651774Y0024025D01*
X0653743Y0025994D01*
X0654505Y0026310D01*
X0653743Y0026626D01*
X0652404Y0027965D01*
X0652404Y0025102D01*
X0651642Y0024341D01*
X0644066Y0024341D01*
X0643304Y0025102D01*
X0643304Y0030116D01*
X0644066Y0030878D01*
X0644970Y0030878D01*
X0643838Y0032010D01*
X0619079Y0032010D01*
X0617947Y0030878D01*
X0619142Y0030878D01*
X0619904Y0030116D01*
X0619904Y0025102D01*
X0619142Y0024341D01*
X0614098Y0024341D01*
X0614508Y0023931D01*
X0617108Y0021331D01*
X0617108Y0021927D01*
X0617580Y0023066D01*
X0618452Y0023938D01*
X0619592Y0024410D01*
X0620825Y0024410D01*
X0621964Y0023938D01*
X0622836Y0023066D01*
X0623308Y0021927D01*
X0623308Y0020756D01*
X0623883Y0020181D01*
X0625785Y0018279D01*
X0631351Y0018279D01*
X0632113Y0017518D01*
X0632113Y0012504D01*
X0632113Y0012545D02*
X0632783Y0012545D01*
X0636383Y0012545D02*
X0643184Y0012545D01*
X0647370Y0012545D02*
X0648338Y0012545D01*
X0652524Y0012545D02*
X0652794Y0012545D01*
X0651795Y0011547D02*
X0651318Y0011547D01*
X0648338Y0011547D02*
X0647370Y0011547D01*
X0644390Y0011547D02*
X0636383Y0011547D01*
X0623013Y0012545D02*
X0619904Y0012545D01*
X0610804Y0012545D02*
X0599613Y0012545D01*
X0599613Y0012504D02*
X0599613Y0017518D01*
X0598851Y0018279D01*
X0596863Y0018279D01*
X0596863Y0020951D01*
X0593673Y0024141D01*
X0594578Y0024141D01*
X0594578Y0027125D01*
X0590689Y0027125D01*
X0589459Y0028355D01*
X0588405Y0029409D01*
X0587404Y0029409D01*
X0587404Y0030116D01*
X0586642Y0030878D01*
X0579066Y0030878D01*
X0578304Y0030116D01*
X0578304Y0025102D01*
X0579066Y0024341D01*
X0586642Y0024341D01*
X0587404Y0025102D01*
X0587404Y0025319D01*
X0593263Y0019460D01*
X0593263Y0018279D01*
X0591274Y0018279D01*
X0590513Y0017518D01*
X0590513Y0012504D01*
X0591274Y0011742D01*
X0598851Y0011742D01*
X0599613Y0012504D01*
X0590513Y0012545D02*
X0587404Y0012545D01*
X0578304Y0012545D02*
X0572739Y0012545D01*
X0567783Y0012545D02*
X0567113Y0012545D01*
X0567113Y0013544D02*
X0568646Y0013544D01*
X0569645Y0014542D02*
X0567113Y0014542D01*
X0562563Y0015011D02*
X0557133Y0015011D01*
X0549583Y0022560D01*
X0549583Y0027464D01*
X0549729Y0027609D01*
X0554279Y0027523D02*
X0562078Y0027523D01*
X0562078Y0027125D02*
X0557813Y0027125D01*
X0557813Y0025443D01*
X0557915Y0025062D01*
X0558112Y0024720D01*
X0558392Y0024440D01*
X0558734Y0024243D01*
X0559115Y0024141D01*
X0562078Y0024141D01*
X0562078Y0027125D01*
X0562078Y0028093D01*
X0557813Y0028093D01*
X0557813Y0029775D01*
X0557915Y0030157D01*
X0558112Y0030499D01*
X0558392Y0030778D01*
X0558734Y0030975D01*
X0559115Y0031078D01*
X0562078Y0031078D01*
X0562078Y0028094D01*
X0563047Y0028094D01*
X0563047Y0031078D01*
X0566010Y0031078D01*
X0566392Y0030975D01*
X0566734Y0030778D01*
X0567013Y0030499D01*
X0567210Y0030157D01*
X0567313Y0029775D01*
X0567313Y0028093D01*
X0563047Y0028093D01*
X0563047Y0027125D01*
X0567313Y0027125D01*
X0567313Y0025443D01*
X0567210Y0025062D01*
X0567013Y0024720D01*
X0566734Y0024440D01*
X0566392Y0024243D01*
X0566010Y0024141D01*
X0563047Y0024141D01*
X0563047Y0027125D01*
X0562078Y0027125D01*
X0562078Y0026524D02*
X0563047Y0026524D01*
X0567313Y0026524D02*
X0573408Y0026524D01*
X0577008Y0026524D02*
X0578304Y0026524D01*
X0578304Y0027523D02*
X0577008Y0027523D01*
X0573408Y0027523D02*
X0563047Y0027523D01*
X0557813Y0026524D02*
X0554279Y0026524D01*
X0545179Y0026524D02*
X0534188Y0026524D01*
X0529922Y0026524D02*
X0528953Y0026524D01*
X0529922Y0027523D02*
X0545179Y0027523D01*
X0545179Y0028521D02*
X0534188Y0028521D01*
X0529922Y0028521D02*
X0528953Y0028521D01*
X0513304Y0028521D02*
X0502313Y0028521D01*
X0498047Y0028521D02*
X0497078Y0028521D01*
X0497078Y0027523D02*
X0493196Y0027523D01*
X0502313Y0026524D02*
X0513304Y0026524D01*
X0513304Y0025526D02*
X0502313Y0025526D01*
X0498047Y0025526D02*
X0497078Y0025526D01*
X0492813Y0025526D02*
X0492767Y0025526D01*
X0497078Y0024527D02*
X0498047Y0024527D01*
X0501821Y0024527D02*
X0513879Y0024527D01*
X0521829Y0024527D02*
X0522158Y0024527D01*
X0528953Y0024527D02*
X0529922Y0024527D01*
X0533696Y0024527D02*
X0545754Y0024527D01*
X0553704Y0024527D02*
X0558305Y0024527D01*
X0562078Y0024527D02*
X0563047Y0024527D01*
X0566821Y0024527D02*
X0573408Y0024527D01*
X0577008Y0024527D02*
X0578879Y0024527D01*
X0586829Y0024527D02*
X0588195Y0024527D01*
X0594578Y0024527D02*
X0595547Y0024527D01*
X0595547Y0024141D02*
X0598510Y0024141D01*
X0598892Y0024243D01*
X0599234Y0024440D01*
X0599513Y0024720D01*
X0599710Y0025062D01*
X0599813Y0025443D01*
X0599813Y0027125D01*
X0595547Y0027125D01*
X0595547Y0028093D01*
X0599813Y0028093D01*
X0599813Y0029775D01*
X0599710Y0030157D01*
X0599513Y0030499D01*
X0599234Y0030778D01*
X0598892Y0030975D01*
X0598510Y0031078D01*
X0595547Y0031078D01*
X0595547Y0028094D01*
X0594578Y0028094D01*
X0594578Y0031078D01*
X0591615Y0031078D01*
X0591234Y0030975D01*
X0590892Y0030778D01*
X0590612Y0030499D01*
X0590415Y0030157D01*
X0590313Y0029775D01*
X0590313Y0028093D01*
X0594578Y0028093D01*
X0594578Y0027125D01*
X0595547Y0027125D01*
X0595547Y0024141D01*
X0599321Y0024527D02*
X0605054Y0024527D01*
X0603484Y0025526D02*
X0599813Y0025526D01*
X0595547Y0025526D02*
X0594578Y0025526D01*
X0578304Y0025526D02*
X0577008Y0025526D01*
X0573408Y0025526D02*
X0567313Y0025526D01*
X0563047Y0025526D02*
X0562078Y0025526D01*
X0557813Y0025526D02*
X0554279Y0025526D01*
X0545179Y0025526D02*
X0534188Y0025526D01*
X0529922Y0025526D02*
X0528953Y0025526D01*
X0526785Y0023529D02*
X0547783Y0023529D01*
X0551383Y0023529D02*
X0573408Y0023529D01*
X0577008Y0023529D02*
X0589194Y0023529D01*
X0594285Y0023529D02*
X0607319Y0023529D01*
X0614910Y0023529D02*
X0618043Y0023529D01*
X0622374Y0023529D02*
X0632783Y0023529D01*
X0636383Y0023529D02*
X0651568Y0023529D01*
X0651155Y0022530D02*
X0636383Y0022530D01*
X0632783Y0022530D02*
X0623058Y0022530D01*
X0617358Y0022530D02*
X0615909Y0022530D01*
X0608318Y0022530D02*
X0595284Y0022530D01*
X0590193Y0022530D02*
X0577008Y0022530D01*
X0573408Y0022530D02*
X0552159Y0022530D01*
X0547783Y0022530D02*
X0527784Y0022530D01*
X0522693Y0022530D02*
X0509308Y0022530D01*
X0503608Y0022530D02*
X0494887Y0022530D01*
X0494473Y0023529D02*
X0504293Y0023529D01*
X0508624Y0023529D02*
X0522158Y0023529D01*
X0523691Y0021532D02*
X0509558Y0021532D01*
X0506458Y0021310D02*
X0505833Y0020685D01*
X0505833Y0016310D01*
X0504534Y0015011D01*
X0497563Y0015011D01*
X0506611Y0014542D02*
X0513304Y0014542D01*
X0522404Y0014542D02*
X0524888Y0014542D01*
X0524888Y0013544D02*
X0522404Y0013544D01*
X0513304Y0013544D02*
X0505613Y0013544D01*
X0502113Y0012545D02*
X0513304Y0012545D01*
X0522404Y0012545D02*
X0524888Y0012545D01*
X0520017Y0011547D02*
X0547929Y0011547D01*
X0533595Y0010548D02*
X0522345Y0010548D01*
X0516054Y0010548D02*
X0514039Y0010548D01*
X0508071Y0010548D02*
X0507629Y0010548D01*
X0504846Y0010548D02*
X0503878Y0010548D01*
X0501999Y0011028D02*
X0501618Y0010926D01*
X0501275Y0010729D01*
X0500996Y0010450D01*
X0500799Y0010107D01*
X0500697Y0009726D01*
X0500697Y0008044D01*
X0503878Y0008044D01*
X0503878Y0011028D01*
X0501999Y0011028D01*
X0494246Y0011547D02*
X0516054Y0011547D01*
X0517854Y0011164D02*
X0521458Y0007560D01*
X0511055Y0007560D01*
X0504362Y0007560D02*
X0497083Y0007560D01*
X0495333Y0008551D02*
X0500697Y0008551D01*
X0503878Y0008551D02*
X0504846Y0008551D01*
X0504846Y0009550D02*
X0503878Y0009550D01*
X0500697Y0009550D02*
X0495086Y0009550D01*
X0494672Y0010548D02*
X0501095Y0010548D01*
X0514520Y0009550D02*
X0516923Y0009550D01*
X0523853Y0009550D02*
X0533197Y0009550D01*
X0536378Y0009550D02*
X0537346Y0009550D01*
X0547020Y0009550D02*
X0547929Y0009550D01*
X0551529Y0009550D02*
X0552189Y0009550D01*
X0556978Y0009550D02*
X0565897Y0009550D01*
X0537346Y0008551D02*
X0536378Y0008551D01*
X0533197Y0008551D02*
X0524403Y0008551D01*
X0517854Y0011164D02*
X0517854Y0015011D01*
X0522404Y0015541D02*
X0524888Y0015541D01*
X0513304Y0015541D02*
X0507610Y0015541D01*
X0507633Y0016539D02*
X0513304Y0016539D01*
X0522404Y0016539D02*
X0524888Y0016539D01*
X0524908Y0017538D02*
X0522384Y0017538D01*
X0513324Y0017538D02*
X0507633Y0017538D01*
X0504033Y0017538D02*
X0502093Y0017538D01*
X0504033Y0018536D02*
X0495279Y0018536D01*
X0495333Y0019535D02*
X0503850Y0019535D01*
X0509067Y0019535D02*
X0525688Y0019535D01*
X0530779Y0019535D02*
X0550063Y0019535D01*
X0555154Y0019535D02*
X0573408Y0019535D01*
X0577008Y0019535D02*
X0593188Y0019535D01*
X0596863Y0019535D02*
X0613554Y0019535D01*
X0617154Y0019535D02*
X0617600Y0019535D01*
X0620208Y0021310D02*
X0622083Y0019435D01*
X0626508Y0015011D01*
X0627563Y0015011D01*
X0632113Y0015541D02*
X0632783Y0015541D01*
X0636383Y0015541D02*
X0643104Y0015541D01*
X0647370Y0015541D02*
X0648338Y0015541D01*
X0648338Y0016539D02*
X0647370Y0016539D01*
X0643104Y0016539D02*
X0636383Y0016539D01*
X0632783Y0016539D02*
X0632113Y0016539D01*
X0632093Y0017538D02*
X0632783Y0017538D01*
X0636383Y0017538D02*
X0643201Y0017538D01*
X0647370Y0017538D02*
X0648338Y0017538D01*
X0650763Y0018536D02*
X0636383Y0018536D01*
X0632783Y0018536D02*
X0625528Y0018536D01*
X0618804Y0018536D02*
X0617154Y0018536D01*
X0613554Y0018536D02*
X0596863Y0018536D01*
X0593263Y0018536D02*
X0577008Y0018536D01*
X0573408Y0018536D02*
X0556153Y0018536D01*
X0551062Y0018536D02*
X0531383Y0018536D01*
X0526687Y0018536D02*
X0507862Y0018536D01*
X0533968Y0017538D02*
X0545199Y0017538D01*
X0557151Y0017538D02*
X0558033Y0017538D01*
X0567093Y0017538D02*
X0573408Y0017538D01*
X0577008Y0017538D02*
X0578324Y0017538D01*
X0587384Y0017538D02*
X0590533Y0017538D01*
X0590513Y0016539D02*
X0587404Y0016539D01*
X0599613Y0016539D02*
X0610804Y0016539D01*
X0610824Y0017538D02*
X0599593Y0017538D01*
X0619884Y0017538D02*
X0621435Y0017538D01*
X0622434Y0016539D02*
X0619904Y0016539D01*
X0619904Y0015541D02*
X0623013Y0015541D01*
X0610804Y0015541D02*
X0599613Y0015541D01*
X0595063Y0015011D02*
X0595063Y0020206D01*
X0587659Y0027609D01*
X0582854Y0027609D01*
X0590291Y0027523D02*
X0594578Y0027523D01*
X0595547Y0027523D02*
X0602733Y0027523D01*
X0602907Y0026524D02*
X0599813Y0026524D01*
X0595547Y0026524D02*
X0594578Y0026524D01*
X0615354Y0027609D02*
X0615833Y0028089D01*
X0615833Y0031310D01*
X0618333Y0033810D01*
X0644583Y0033810D01*
X0647854Y0030539D01*
X0647854Y0027609D01*
X0652404Y0027523D02*
X0652846Y0027523D01*
X0652404Y0026524D02*
X0653988Y0026524D01*
X0643304Y0026524D02*
X0636290Y0026524D01*
X0635291Y0027523D02*
X0643304Y0027523D01*
X0634583Y0025685D02*
X0632659Y0027609D01*
X0627563Y0027609D01*
X0623013Y0027523D02*
X0619904Y0027523D01*
X0619904Y0026524D02*
X0623013Y0026524D01*
X0634583Y0025685D02*
X0634583Y0007781D01*
X0634362Y0007560D01*
X0615208Y0007560D01*
X0640571Y0008551D02*
X0641539Y0008551D01*
X0644720Y0008551D02*
X0650708Y0008551D01*
X0650956Y0009550D02*
X0644720Y0009550D01*
X0641539Y0009550D02*
X0640571Y0009550D01*
X0640571Y0010548D02*
X0641539Y0010548D01*
X0644322Y0010548D02*
X0651369Y0010548D01*
X0637788Y0010548D02*
X0637346Y0010548D01*
X0631378Y0010548D02*
X0617154Y0010548D01*
X0613554Y0010548D02*
X0611539Y0010548D01*
X0605571Y0010548D02*
X0605129Y0010548D01*
X0612020Y0009550D02*
X0613554Y0009550D01*
X0617154Y0009550D02*
X0630897Y0009550D01*
X0632113Y0013544D02*
X0632783Y0013544D01*
X0636383Y0013544D02*
X0643104Y0013544D01*
X0647370Y0013544D02*
X0648338Y0013544D01*
X0652604Y0013544D02*
X0653862Y0013544D01*
X0653327Y0014542D02*
X0648338Y0014542D01*
X0647370Y0014542D02*
X0636383Y0014542D01*
X0632783Y0014542D02*
X0632113Y0014542D01*
X0623013Y0014542D02*
X0619904Y0014542D01*
X0619904Y0013544D02*
X0623013Y0013544D01*
X0610804Y0013544D02*
X0599613Y0013544D01*
X0599613Y0014542D02*
X0610804Y0014542D01*
X0590513Y0014542D02*
X0587404Y0014542D01*
X0587404Y0013544D02*
X0590513Y0013544D01*
X0590513Y0015541D02*
X0587404Y0015541D01*
X0571642Y0016539D02*
X0567113Y0016539D01*
X0567113Y0015541D02*
X0570643Y0015541D01*
X0555056Y0014542D02*
X0554279Y0014542D01*
X0545179Y0014542D02*
X0533988Y0014542D01*
X0533988Y0013544D02*
X0545179Y0013544D01*
X0554279Y0013544D02*
X0556054Y0013544D01*
X0545179Y0016539D02*
X0533988Y0016539D01*
X0529781Y0020533D02*
X0549065Y0020533D01*
X0554156Y0020533D02*
X0573408Y0020533D01*
X0577008Y0020533D02*
X0592190Y0020533D01*
X0596863Y0020533D02*
X0612815Y0020533D01*
X0617154Y0020533D02*
X0617175Y0020533D01*
X0623531Y0020533D02*
X0632783Y0020533D01*
X0636383Y0020533D02*
X0650708Y0020533D01*
X0650741Y0021532D02*
X0636383Y0021532D01*
X0632783Y0021532D02*
X0623308Y0021532D01*
X0617108Y0021532D02*
X0616907Y0021532D01*
X0609316Y0021532D02*
X0596282Y0021532D01*
X0591191Y0021532D02*
X0577008Y0021532D01*
X0573408Y0021532D02*
X0553157Y0021532D01*
X0548066Y0021532D02*
X0528782Y0021532D01*
X0524690Y0020533D02*
X0509492Y0020533D01*
X0503425Y0020533D02*
X0495333Y0020533D01*
X0495300Y0021532D02*
X0503358Y0021532D01*
X0554279Y0028521D02*
X0557813Y0028521D01*
X0562078Y0028521D02*
X0563047Y0028521D01*
X0567313Y0028521D02*
X0573408Y0028521D01*
X0577008Y0028521D02*
X0578304Y0028521D01*
X0589293Y0028521D02*
X0590313Y0028521D01*
X0594578Y0028521D02*
X0595547Y0028521D01*
X0599813Y0028521D02*
X0602876Y0028521D01*
X0603409Y0029520D02*
X0599813Y0029520D01*
X0595547Y0029520D02*
X0594578Y0029520D01*
X0590313Y0029520D02*
X0587404Y0029520D01*
X0578304Y0029520D02*
X0577008Y0029520D01*
X0573408Y0029520D02*
X0567313Y0029520D01*
X0563047Y0029520D02*
X0562078Y0029520D01*
X0557813Y0029520D02*
X0554279Y0029520D01*
X0545179Y0029520D02*
X0534188Y0029520D01*
X0529922Y0029520D02*
X0528953Y0029520D01*
X0524688Y0029520D02*
X0522404Y0029520D01*
X0513304Y0029520D02*
X0502313Y0029520D01*
X0498047Y0029520D02*
X0497078Y0029520D01*
X0497078Y0030518D02*
X0498047Y0030518D01*
X0501993Y0030518D02*
X0513706Y0030518D01*
X0522002Y0030518D02*
X0525007Y0030518D01*
X0528953Y0030518D02*
X0529922Y0030518D01*
X0533868Y0030518D02*
X0545581Y0030518D01*
X0553877Y0030518D02*
X0558132Y0030518D01*
X0562078Y0030518D02*
X0563047Y0030518D01*
X0566993Y0030518D02*
X0573408Y0030518D01*
X0577008Y0030518D02*
X0578706Y0030518D01*
X0587002Y0030518D02*
X0590632Y0030518D01*
X0594578Y0030518D02*
X0595547Y0030518D01*
X0599493Y0030518D02*
X0603454Y0030518D01*
X0602456Y0031517D02*
X0577961Y0031517D01*
X0573408Y0031517D02*
X0495333Y0031517D01*
X0618586Y0031517D02*
X0644331Y0031517D01*
X0643706Y0030518D02*
X0631711Y0030518D01*
X0632113Y0029520D02*
X0643304Y0029520D01*
X0643304Y0028521D02*
X0634293Y0028521D01*
X0623013Y0028521D02*
X0619904Y0028521D01*
X0619904Y0029520D02*
X0623013Y0029520D01*
X0623415Y0030518D02*
X0619502Y0030518D01*
X0619904Y0025526D02*
X0623013Y0025526D01*
X0623588Y0024527D02*
X0619329Y0024527D01*
X0631538Y0024527D02*
X0632783Y0024527D01*
X0636383Y0024527D02*
X0643879Y0024527D01*
X0643304Y0025526D02*
X0636383Y0025526D01*
X0632197Y0025526D02*
X0632113Y0025526D01*
X0651829Y0024527D02*
X0652276Y0024527D01*
X0652404Y0025526D02*
X0653275Y0025526D01*
X0650708Y0019535D02*
X0636383Y0019535D01*
X0632783Y0019535D02*
X0624529Y0019535D01*
D13*
X0620208Y0021310D03*
X0605833Y0027560D03*
X0507708Y0030060D03*
X0506458Y0021310D03*
X0513333Y0021310D03*
X0621458Y0011310D03*
X0554583Y0007560D03*
X0587083Y0006935D03*
X0521458Y0007560D03*
X0497083Y0007560D03*
M02*
