G75*
%MOIN*%
%OFA0B0*%
%FSLAX25Y25*%
%IPPOS*%
%LPD*%
%AMOC8*
5,1,8,0,0,1.08239X$1,22.5*
%
%ADD10C,0.00500*%
D10*
X0541690Y0016389D02*
X0543737Y0016389D01*
X0541690Y0016389D02*
X0541690Y0026231D01*
X0554237Y0026231D01*
X0560190Y0026231D02*
X0573977Y0026231D01*
X0580190Y0026231D02*
X0593977Y0026231D01*
X0600430Y0026231D02*
X0602477Y0026231D01*
X0602477Y0016389D01*
X0589930Y0016389D01*
X0591008Y0016738D02*
X0591008Y0018090D01*
X0591459Y0018540D01*
X0593260Y0018540D01*
X0593711Y0018090D01*
X0593711Y0016738D01*
X0591008Y0016738D01*
X0584316Y0016389D02*
X0569851Y0016389D01*
X0570383Y0015939D02*
X0570383Y0016840D01*
X0570834Y0017290D01*
X0572635Y0017290D01*
X0573086Y0016840D01*
X0573086Y0015939D01*
X0572635Y0015488D01*
X0570834Y0015488D01*
X0570383Y0015939D01*
X0564316Y0016389D02*
X0549851Y0016389D01*
X0551008Y0015768D02*
X0551459Y0016218D01*
X0551008Y0015768D02*
X0551008Y0014867D01*
X0551459Y0014417D01*
X0553260Y0014417D01*
X0553711Y0014867D01*
X0553711Y0015768D01*
X0553260Y0016218D01*
X0553260Y0017363D02*
X0551459Y0017363D01*
X0551008Y0017814D01*
X0551008Y0018715D01*
X0551459Y0019165D01*
X0553260Y0019165D02*
X0553711Y0018715D01*
X0553711Y0017814D01*
X0553260Y0017363D01*
X0591008Y0015593D02*
X0593711Y0015593D01*
X0593711Y0013792D02*
X0591008Y0015593D01*
X0573086Y0013893D02*
X0572635Y0014343D01*
X0570834Y0014343D01*
X0570383Y0013893D01*
X0570383Y0012542D01*
X0573086Y0012542D01*
X0573086Y0013893D01*
X0591008Y0013792D02*
X0593711Y0013792D01*
X0593260Y0012647D02*
X0593711Y0012197D01*
X0593711Y0011296D01*
X0593260Y0010845D01*
X0591459Y0010845D01*
X0591008Y0011296D01*
X0591008Y0012197D01*
X0591459Y0012647D01*
X0592359Y0012647D01*
X0592359Y0011746D01*
X0553711Y0011470D02*
X0551909Y0011470D01*
X0551008Y0012371D01*
X0551909Y0013272D01*
X0553711Y0013272D01*
X0561459Y0023970D02*
X0561008Y0024421D01*
X0561008Y0025322D01*
X0561459Y0025772D01*
X0562359Y0025772D01*
X0562359Y0024871D01*
X0563260Y0023970D02*
X0563711Y0024421D01*
X0563711Y0025322D01*
X0563260Y0025772D01*
X0563711Y0026917D02*
X0561008Y0028718D01*
X0563711Y0028718D01*
X0563711Y0029863D02*
X0563711Y0031215D01*
X0563260Y0031665D01*
X0561459Y0031665D01*
X0561008Y0031215D01*
X0561008Y0029863D01*
X0563711Y0029863D01*
X0580383Y0029871D02*
X0580383Y0028971D01*
X0580383Y0029421D02*
X0583086Y0029421D01*
X0583086Y0028971D02*
X0583086Y0029871D01*
X0600383Y0030314D02*
X0600834Y0029863D01*
X0602635Y0029863D01*
X0603086Y0030314D01*
X0603086Y0031215D01*
X0602635Y0031665D01*
X0600834Y0031665D02*
X0600383Y0031215D01*
X0600383Y0030314D01*
X0600834Y0028718D02*
X0600383Y0028268D01*
X0600383Y0027367D01*
X0600834Y0026917D01*
X0602635Y0026917D01*
X0603086Y0027367D01*
X0603086Y0028268D01*
X0602635Y0028718D01*
X0583086Y0027375D02*
X0583086Y0026024D01*
X0580383Y0026024D01*
X0580383Y0027375D01*
X0580834Y0027826D01*
X0582635Y0027826D01*
X0583086Y0027375D01*
X0563711Y0026917D02*
X0561008Y0026917D01*
X0600383Y0024871D02*
X0601284Y0025772D01*
X0603086Y0025772D01*
X0601284Y0023970D02*
X0600383Y0024871D01*
X0601284Y0023970D02*
X0603086Y0023970D01*
X0563260Y0023970D02*
X0561459Y0023970D01*
M02*
