G75*
%MOIN*%
%OFA0B0*%
%FSLAX25Y25*%
%IPPOS*%
%LPD*%
%AMOC8*
5,1,8,0,0,1.08239X$1,22.5*
%
%ADD10C,0.00800*%
%ADD11C,0.01600*%
D10*
X0497818Y0011030D02*
X0497818Y0011940D01*
X0497818Y0011030D02*
X0517308Y0011030D01*
X0517308Y0011010D01*
X0517508Y0011010D01*
X0517508Y0012010D01*
X0529693Y0011940D02*
X0529693Y0011030D01*
X0549183Y0011030D01*
X0549183Y0011010D01*
X0549383Y0011010D01*
X0549383Y0012010D01*
X0562818Y0011940D02*
X0562818Y0011030D01*
X0582308Y0011030D01*
X0582308Y0011010D01*
X0582508Y0011010D01*
X0582508Y0012010D01*
X0595318Y0011940D02*
X0595318Y0011030D01*
X0614808Y0011030D01*
X0614808Y0011010D01*
X0615008Y0011010D01*
X0615008Y0012010D01*
X0627828Y0012180D02*
X0627828Y0011110D01*
X0628028Y0011110D01*
X0628028Y0011100D01*
X0647588Y0011100D01*
X0647588Y0011990D01*
X0647708Y0021310D02*
X0637708Y0011310D01*
X0627708Y0017810D02*
X0627708Y0024510D01*
X0615208Y0024810D02*
X0615208Y0018110D01*
X0595208Y0017910D02*
X0595208Y0021310D01*
X0605208Y0031310D01*
X0614888Y0031510D02*
X0614888Y0031520D01*
X0595328Y0031520D01*
X0595328Y0030630D01*
X0582588Y0030440D02*
X0582588Y0031510D01*
X0582388Y0031510D01*
X0582388Y0031520D01*
X0562828Y0031520D01*
X0562828Y0030630D01*
X0562708Y0021310D02*
X0572708Y0031310D01*
X0549463Y0031510D02*
X0549463Y0030440D01*
X0539583Y0031310D02*
X0529583Y0021310D01*
X0529583Y0024710D01*
X0517708Y0024810D02*
X0517708Y0018110D01*
X0529583Y0017910D02*
X0529583Y0021310D01*
X0507708Y0031310D02*
X0497708Y0021310D01*
X0497708Y0024710D01*
X0497708Y0021310D02*
X0497708Y0017910D01*
X0549583Y0018110D02*
X0549583Y0024810D01*
X0562708Y0024710D02*
X0562708Y0021310D01*
X0562708Y0017910D01*
X0582708Y0018110D02*
X0582708Y0024810D01*
X0595208Y0024710D02*
X0595208Y0021310D01*
X0647708Y0021310D02*
X0647708Y0024710D01*
X0647708Y0021310D02*
X0647708Y0017910D01*
X0647598Y0030680D02*
X0647598Y0031590D01*
X0628108Y0031590D01*
X0628108Y0031610D01*
X0627908Y0031610D01*
X0627908Y0030610D01*
X0615088Y0030440D02*
X0615088Y0031510D01*
X0614888Y0031510D01*
X0549463Y0031510D02*
X0549263Y0031510D01*
X0549263Y0031520D01*
X0529703Y0031520D01*
X0529703Y0030630D01*
X0517588Y0030440D02*
X0517588Y0031510D01*
X0517388Y0031510D01*
X0517388Y0031520D01*
X0497828Y0031520D01*
X0497828Y0030630D01*
D11*
X0496458Y0032560D03*
X0528333Y0032560D03*
X0561458Y0032560D03*
X0593958Y0032560D03*
X0648958Y0010060D03*
M02*
