G75*
%MOIN*%
%OFA0B0*%
%FSLAX25Y25*%
%IPPOS*%
%LPD*%
%AMOC8*
5,1,8,0,0,1.08239X$1,22.5*
%
%ADD10R,0.03937X0.07874*%
%ADD11C,0.01000*%
%ADD12C,0.03600*%
D10*
X0547083Y0014814D03*
X0567083Y0014814D03*
X0587083Y0014814D03*
X0577083Y0027806D03*
X0557083Y0027806D03*
X0597083Y0027806D03*
D11*
X0492298Y0014126D02*
X0491536Y0013810D01*
X0492298Y0013494D01*
X0494268Y0011525D01*
X0495333Y0008952D01*
X0495333Y0007860D01*
X0518358Y0007860D01*
X0518358Y0008177D01*
X0518830Y0009316D01*
X0519702Y0010188D01*
X0520842Y0010660D01*
X0522075Y0010660D01*
X0523214Y0010188D01*
X0524042Y0009360D01*
X0545283Y0009360D01*
X0545283Y0009577D01*
X0544576Y0009577D01*
X0543815Y0010338D01*
X0543815Y0019289D01*
X0544576Y0020051D01*
X0549590Y0020051D01*
X0550352Y0019289D01*
X0550352Y0010338D01*
X0549590Y0009577D01*
X0549487Y0009577D01*
X0549704Y0009360D01*
X0551999Y0009360D01*
X0552827Y0010188D01*
X0553967Y0010660D01*
X0555200Y0010660D01*
X0556339Y0010188D01*
X0557211Y0009316D01*
X0557683Y0008177D01*
X0557683Y0007860D01*
X0650708Y0007860D01*
X0650708Y0008952D01*
X0651774Y0011525D01*
X0653743Y0013494D01*
X0654505Y0013810D01*
X0653743Y0014126D01*
X0651774Y0016095D01*
X0650708Y0018668D01*
X0650708Y0021452D01*
X0651774Y0024025D01*
X0653743Y0025994D01*
X0654505Y0026310D01*
X0653743Y0026626D01*
X0651774Y0028595D01*
X0650708Y0031168D01*
X0650708Y0032260D01*
X0600352Y0032260D01*
X0600352Y0029360D01*
X0603249Y0029360D01*
X0604077Y0030188D01*
X0605217Y0030660D01*
X0606450Y0030660D01*
X0607589Y0030188D01*
X0608461Y0029316D01*
X0608933Y0028177D01*
X0608933Y0026943D01*
X0608461Y0025804D01*
X0607589Y0024932D01*
X0606450Y0024460D01*
X0605217Y0024460D01*
X0604077Y0024932D01*
X0603249Y0025760D01*
X0600352Y0025760D01*
X0600352Y0023331D01*
X0600131Y0023110D01*
X0617624Y0023110D01*
X0618452Y0023938D01*
X0619592Y0024410D01*
X0620825Y0024410D01*
X0621964Y0023938D01*
X0622836Y0023066D01*
X0623308Y0021927D01*
X0623308Y0020693D01*
X0622836Y0019554D01*
X0621964Y0018682D01*
X0620825Y0018210D01*
X0619592Y0018210D01*
X0618452Y0018682D01*
X0617624Y0019510D01*
X0590346Y0019510D01*
X0590450Y0019330D01*
X0590552Y0018948D01*
X0590552Y0015298D01*
X0587568Y0015298D01*
X0587568Y0014330D01*
X0590552Y0014330D01*
X0590552Y0010679D01*
X0590450Y0010298D01*
X0590252Y0009956D01*
X0589973Y0009677D01*
X0589631Y0009479D01*
X0589249Y0009377D01*
X0587568Y0009377D01*
X0587568Y0014330D01*
X0586599Y0014330D01*
X0583615Y0014330D01*
X0583615Y0010679D01*
X0583717Y0010298D01*
X0583915Y0009956D01*
X0584194Y0009677D01*
X0584536Y0009479D01*
X0584917Y0009377D01*
X0586599Y0009377D01*
X0586599Y0014330D01*
X0586599Y0015298D01*
X0583615Y0015298D01*
X0583615Y0018948D01*
X0583717Y0019330D01*
X0583821Y0019510D01*
X0570131Y0019510D01*
X0570352Y0019289D01*
X0570352Y0010338D01*
X0569590Y0009577D01*
X0564576Y0009577D01*
X0563815Y0010338D01*
X0563815Y0019289D01*
X0564576Y0020051D01*
X0565283Y0020051D01*
X0565283Y0020181D01*
X0567158Y0022056D01*
X0568213Y0023110D01*
X0574035Y0023110D01*
X0573815Y0023331D01*
X0573815Y0032260D01*
X0560466Y0032260D01*
X0560552Y0031941D01*
X0560552Y0028290D01*
X0557568Y0028290D01*
X0557568Y0027322D01*
X0560552Y0027322D01*
X0560552Y0023672D01*
X0560450Y0023290D01*
X0560252Y0022948D01*
X0559973Y0022669D01*
X0559631Y0022471D01*
X0559249Y0022369D01*
X0557568Y0022369D01*
X0557568Y0027322D01*
X0556599Y0027322D01*
X0553615Y0027322D01*
X0553615Y0023672D01*
X0553717Y0023290D01*
X0553915Y0022948D01*
X0554194Y0022669D01*
X0554536Y0022471D01*
X0554917Y0022369D01*
X0556599Y0022369D01*
X0556599Y0027322D01*
X0556599Y0028290D01*
X0553615Y0028290D01*
X0553615Y0031941D01*
X0553700Y0032260D01*
X0519954Y0032260D01*
X0509558Y0021864D01*
X0509558Y0020693D01*
X0509086Y0019554D01*
X0508214Y0018682D01*
X0507075Y0018210D01*
X0505842Y0018210D01*
X0504702Y0018682D01*
X0503830Y0019554D01*
X0503358Y0020693D01*
X0503358Y0021927D01*
X0503830Y0023066D01*
X0504702Y0023938D01*
X0505842Y0024410D01*
X0507013Y0024410D01*
X0514863Y0032260D01*
X0495333Y0032260D01*
X0495333Y0031168D01*
X0494268Y0028595D01*
X0492298Y0026626D01*
X0491536Y0026310D01*
X0492298Y0025994D01*
X0494268Y0024025D01*
X0495333Y0021452D01*
X0495333Y0018668D01*
X0494268Y0016095D01*
X0492298Y0014126D01*
X0492715Y0014542D02*
X0543815Y0014542D01*
X0547083Y0014814D02*
X0547083Y0009435D01*
X0548958Y0007560D01*
X0554583Y0007560D01*
X0521458Y0007560D01*
X0518513Y0008551D02*
X0495333Y0008551D01*
X0495086Y0009550D02*
X0519064Y0009550D01*
X0523853Y0009550D02*
X0545283Y0009550D01*
X0549514Y0009550D02*
X0552189Y0009550D01*
X0556978Y0009550D02*
X0584414Y0009550D01*
X0586599Y0009550D02*
X0587568Y0009550D01*
X0589753Y0009550D02*
X0650956Y0009550D01*
X0651369Y0010548D02*
X0590517Y0010548D01*
X0587568Y0010548D02*
X0586599Y0010548D01*
X0583650Y0010548D02*
X0570352Y0010548D01*
X0563815Y0010548D02*
X0555470Y0010548D01*
X0553697Y0010548D02*
X0550352Y0010548D01*
X0543815Y0010548D02*
X0522345Y0010548D01*
X0520572Y0010548D02*
X0494672Y0010548D01*
X0494246Y0011547D02*
X0543815Y0011547D01*
X0550352Y0011547D02*
X0563815Y0011547D01*
X0570352Y0011547D02*
X0583615Y0011547D01*
X0586599Y0011547D02*
X0587568Y0011547D01*
X0590552Y0011547D02*
X0651795Y0011547D01*
X0652794Y0012545D02*
X0590552Y0012545D01*
X0587568Y0012545D02*
X0586599Y0012545D01*
X0583615Y0012545D02*
X0570352Y0012545D01*
X0563815Y0012545D02*
X0550352Y0012545D01*
X0543815Y0012545D02*
X0493248Y0012545D01*
X0492179Y0013544D02*
X0543815Y0013544D01*
X0550352Y0013544D02*
X0563815Y0013544D01*
X0570352Y0013544D02*
X0583615Y0013544D01*
X0586599Y0013544D02*
X0587568Y0013544D01*
X0590552Y0013544D02*
X0653862Y0013544D01*
X0653327Y0014542D02*
X0587568Y0014542D01*
X0586599Y0014542D02*
X0570352Y0014542D01*
X0567083Y0014814D02*
X0567083Y0019435D01*
X0568958Y0021310D01*
X0620208Y0021310D01*
X0623308Y0021532D02*
X0650741Y0021532D01*
X0650708Y0020533D02*
X0623242Y0020533D01*
X0622817Y0019535D02*
X0650708Y0019535D01*
X0650763Y0018536D02*
X0621612Y0018536D01*
X0618804Y0018536D02*
X0590552Y0018536D01*
X0583615Y0018536D02*
X0570352Y0018536D01*
X0563815Y0018536D02*
X0550352Y0018536D01*
X0543815Y0018536D02*
X0507862Y0018536D01*
X0505054Y0018536D02*
X0495279Y0018536D01*
X0495333Y0019535D02*
X0503850Y0019535D01*
X0509067Y0019535D02*
X0544060Y0019535D01*
X0550107Y0019535D02*
X0564060Y0019535D01*
X0565636Y0020533D02*
X0509492Y0020533D01*
X0503425Y0020533D02*
X0495333Y0020533D01*
X0495300Y0021532D02*
X0503358Y0021532D01*
X0506458Y0021310D02*
X0506771Y0021622D01*
X0519583Y0034435D01*
X0574583Y0034435D01*
X0577083Y0031935D01*
X0577083Y0027806D01*
X0573815Y0027523D02*
X0557568Y0027523D01*
X0556599Y0027523D02*
X0515217Y0027523D01*
X0510126Y0027523D02*
X0493196Y0027523D01*
X0492054Y0026524D02*
X0509127Y0026524D01*
X0514218Y0026524D02*
X0553615Y0026524D01*
X0556599Y0026524D02*
X0557568Y0026524D01*
X0560552Y0026524D02*
X0573815Y0026524D01*
X0573815Y0025526D02*
X0560552Y0025526D01*
X0557568Y0025526D02*
X0556599Y0025526D01*
X0553615Y0025526D02*
X0513220Y0025526D01*
X0508129Y0025526D02*
X0492767Y0025526D01*
X0493766Y0024527D02*
X0507130Y0024527D01*
X0512221Y0024527D02*
X0553615Y0024527D01*
X0556599Y0024527D02*
X0557568Y0024527D01*
X0560552Y0024527D02*
X0573815Y0024527D01*
X0573815Y0023529D02*
X0560514Y0023529D01*
X0557568Y0023529D02*
X0556599Y0023529D01*
X0553653Y0023529D02*
X0511223Y0023529D01*
X0504293Y0023529D02*
X0494473Y0023529D01*
X0494887Y0022530D02*
X0503608Y0022530D01*
X0510224Y0022530D02*
X0554434Y0022530D01*
X0556599Y0022530D02*
X0557568Y0022530D01*
X0559733Y0022530D02*
X0567633Y0022530D01*
X0566634Y0021532D02*
X0509558Y0021532D01*
X0494865Y0017538D02*
X0543815Y0017538D01*
X0550352Y0017538D02*
X0563815Y0017538D01*
X0570352Y0017538D02*
X0583615Y0017538D01*
X0590552Y0017538D02*
X0651176Y0017538D01*
X0651590Y0016539D02*
X0590552Y0016539D01*
X0583615Y0016539D02*
X0570352Y0016539D01*
X0563815Y0016539D02*
X0550352Y0016539D01*
X0543815Y0016539D02*
X0494452Y0016539D01*
X0493713Y0015541D02*
X0543815Y0015541D01*
X0550352Y0015541D02*
X0563815Y0015541D01*
X0570352Y0015541D02*
X0583615Y0015541D01*
X0590552Y0015541D02*
X0652328Y0015541D01*
X0563815Y0014542D02*
X0550352Y0014542D01*
X0557528Y0008551D02*
X0650708Y0008551D01*
X0651155Y0022530D02*
X0623058Y0022530D01*
X0622374Y0023529D02*
X0651568Y0023529D01*
X0652276Y0024527D02*
X0606612Y0024527D01*
X0605054Y0024527D02*
X0600352Y0024527D01*
X0600352Y0025526D02*
X0603484Y0025526D01*
X0608183Y0025526D02*
X0653275Y0025526D01*
X0653988Y0026524D02*
X0608760Y0026524D01*
X0608933Y0027523D02*
X0652846Y0027523D01*
X0651848Y0028521D02*
X0608791Y0028521D01*
X0605833Y0027560D02*
X0597329Y0027560D01*
X0597083Y0027806D01*
X0573815Y0028521D02*
X0560552Y0028521D01*
X0553615Y0028521D02*
X0516215Y0028521D01*
X0511124Y0028521D02*
X0494194Y0028521D01*
X0494651Y0029520D02*
X0512123Y0029520D01*
X0517214Y0029520D02*
X0553615Y0029520D01*
X0560552Y0029520D02*
X0573815Y0029520D01*
X0573815Y0030518D02*
X0560552Y0030518D01*
X0553615Y0030518D02*
X0518212Y0030518D01*
X0513121Y0030518D02*
X0495064Y0030518D01*
X0495333Y0031517D02*
X0514120Y0031517D01*
X0519211Y0031517D02*
X0553615Y0031517D01*
X0560552Y0031517D02*
X0573815Y0031517D01*
X0600352Y0031517D02*
X0650708Y0031517D01*
X0650977Y0030518D02*
X0606792Y0030518D01*
X0604875Y0030518D02*
X0600352Y0030518D01*
X0600352Y0029520D02*
X0603409Y0029520D01*
X0608258Y0029520D02*
X0651391Y0029520D01*
X0618043Y0023529D02*
X0600352Y0023529D01*
D12*
X0620208Y0021310D03*
X0605833Y0027560D03*
X0507708Y0030060D03*
X0506458Y0021310D03*
X0513333Y0021310D03*
X0621458Y0011310D03*
X0554583Y0007560D03*
X0587083Y0006935D03*
X0521458Y0007560D03*
X0497083Y0007560D03*
M02*
