G75*
%MOIN*%
%OFA0B0*%
%FSLAX25Y25*%
%IPPOS*%
%LPD*%
%AMOC8*
5,1,8,0,0,1.08239X$1,22.5*
%
%ADD10C,0.05800*%
%ADD11R,0.05131X0.04737*%
%ADD12R,0.07300X0.04737*%
%ADD13C,0.04400*%
D10*
X0488333Y0007560D03*
X0657708Y0007560D03*
X0657708Y0020060D03*
X0488333Y0020060D03*
X0488333Y0032560D03*
X0657708Y0032560D03*
D11*
X0641055Y0007560D03*
X0634362Y0007560D03*
X0608555Y0007560D03*
X0601862Y0007560D03*
X0576055Y0007560D03*
X0569362Y0007560D03*
X0543555Y0007560D03*
X0536862Y0007560D03*
X0511055Y0007560D03*
X0504362Y0007560D03*
D12*
X0497563Y0015011D03*
X0517854Y0015011D03*
X0529438Y0015011D03*
X0549729Y0015011D03*
X0562563Y0015011D03*
X0582854Y0015011D03*
X0595063Y0015011D03*
X0615354Y0015011D03*
X0627563Y0015011D03*
X0647854Y0015011D03*
X0647854Y0027609D03*
X0627563Y0027609D03*
X0615354Y0027609D03*
X0595063Y0027609D03*
X0582854Y0027609D03*
X0562563Y0027609D03*
X0549729Y0027609D03*
X0529438Y0027609D03*
X0517854Y0027609D03*
X0497563Y0027609D03*
D13*
X0507708Y0030060D03*
X0605833Y0027560D03*
X0620208Y0021310D03*
X0513333Y0021310D03*
X0506458Y0021310D03*
X0621458Y0011310D03*
X0554583Y0007560D03*
X0587083Y0006935D03*
X0521458Y0007560D03*
X0497083Y0007560D03*
M02*
